%FSLAX34Y34*%
%MOMM*%
%LNSILK_BOTTOM_*%
G71*
G01*
%ADD10C, 0.22*%
%LPD*%
G54D10*
X581025Y825500D02*
X581025Y843278D01*
X574358Y843278D01*
X571692Y842167D01*
X570358Y839944D01*
X570358Y828833D01*
X571692Y826611D01*
X574358Y825500D01*
X581025Y825500D01*
G54D10*
X557469Y826611D02*
X559602Y825500D01*
X562269Y825500D01*
X564936Y826611D01*
X565469Y828833D01*
X565469Y832611D01*
X564136Y834833D01*
X561469Y835500D01*
X558802Y834833D01*
X557469Y833278D01*
X557469Y831056D01*
X565469Y831056D01*
G54D10*
X552580Y826611D02*
X549913Y825500D01*
X547247Y825500D01*
X544580Y826611D01*
X544580Y828833D01*
X545913Y829944D01*
X551247Y831056D01*
X552580Y832167D01*
X552580Y834389D01*
X549913Y835500D01*
X547247Y835500D01*
X544580Y834389D01*
G54D10*
X539691Y825500D02*
X539691Y835500D01*
G54D10*
X539691Y838833D02*
X539691Y838833D01*
G54D10*
X534802Y822167D02*
X532135Y821056D01*
X530269Y821056D01*
X527602Y822167D01*
X526802Y824389D01*
X526802Y835500D01*
G54D10*
X526802Y832611D02*
X528135Y834833D01*
X530802Y835500D01*
X533469Y834833D01*
X534802Y832611D01*
X534802Y828167D01*
X533469Y825944D01*
X530802Y825500D01*
X528135Y825944D01*
X526802Y828167D01*
G54D10*
X521913Y825500D02*
X521913Y835500D01*
G54D10*
X521913Y833278D02*
X520580Y834833D01*
X517913Y835500D01*
X515246Y834833D01*
X513913Y833278D01*
X513913Y825500D01*
G54D10*
X501024Y826611D02*
X503157Y825500D01*
X505824Y825500D01*
X508491Y826611D01*
X509024Y828833D01*
X509024Y832611D01*
X507691Y834833D01*
X505024Y835500D01*
X502357Y834833D01*
X501024Y833278D01*
X501024Y831056D01*
X509024Y831056D01*
G54D10*
X488135Y825500D02*
X488135Y843278D01*
G54D10*
X488135Y832611D02*
X489468Y834833D01*
X492135Y835500D01*
X494802Y834833D01*
X496135Y832611D01*
X496135Y828167D01*
X494802Y825944D01*
X492135Y825500D01*
X489468Y825944D01*
X488135Y828167D01*
G54D10*
X478090Y825500D02*
X478090Y843278D01*
G54D10*
X478090Y832611D02*
X476757Y834833D01*
X474090Y835500D01*
X471423Y834833D01*
X470090Y832611D01*
X470090Y828167D01*
X471423Y825944D01*
X474090Y825500D01*
X476757Y825944D01*
X478090Y828167D01*
G54D10*
X465201Y835500D02*
X459868Y825500D01*
X454534Y835500D01*
G54D10*
X459868Y825500D02*
X461201Y822167D01*
X462534Y821056D01*
X463868Y821056D01*
G54D10*
X444489Y825500D02*
X444489Y843278D01*
X437822Y843278D01*
X435156Y842167D01*
X433822Y839944D01*
X433822Y837722D01*
X435156Y835500D01*
X437822Y834389D01*
X444489Y834389D01*
G54D10*
X428933Y834389D02*
X426266Y835500D01*
X423066Y835500D01*
X420933Y833278D01*
X420933Y825500D01*
G54D10*
X420933Y828833D02*
X422266Y831056D01*
X424933Y831500D01*
X427600Y831056D01*
X428933Y828833D01*
X428400Y826611D01*
X426266Y825500D01*
X424933Y825500D01*
X424400Y825500D01*
X422266Y826611D01*
X420933Y828833D01*
G54D10*
X416044Y835500D02*
X416044Y821056D01*
G54D10*
X416044Y828833D02*
X414711Y825944D01*
X412044Y825500D01*
X409377Y825944D01*
X408044Y828167D01*
X408044Y832611D01*
X409377Y834833D01*
X412044Y835500D01*
X414711Y834833D01*
X416044Y832167D01*
G54D10*
X403155Y834389D02*
X400488Y835500D01*
X397288Y835500D01*
X395155Y833278D01*
X395155Y825500D01*
G54D10*
X395155Y828833D02*
X396488Y831056D01*
X399155Y831500D01*
X401822Y831056D01*
X403155Y828833D01*
X402622Y826611D01*
X400488Y825500D01*
X399155Y825500D01*
X398622Y825500D01*
X396488Y826611D01*
X395155Y828833D01*
G54D10*
X379777Y834389D02*
X375777Y832167D01*
X374443Y829944D01*
X374443Y825500D01*
G54D10*
X385110Y825500D02*
X385110Y843278D01*
X378443Y843278D01*
X375777Y842167D01*
X374443Y839944D01*
X374443Y837722D01*
X375777Y835500D01*
X378443Y834389D01*
X385110Y834389D01*
G54D10*
X361554Y828167D02*
X361554Y832611D01*
X362887Y834833D01*
X365554Y835500D01*
X368221Y834833D01*
X369554Y832611D01*
X369554Y828167D01*
X368221Y825944D01*
X365554Y825500D01*
X362887Y825944D01*
X361554Y828167D01*
G54D10*
X356665Y825500D02*
X356665Y835500D01*
G54D10*
X356665Y833722D02*
X353998Y835500D01*
X351332Y834833D01*
X349998Y833278D01*
X349998Y825500D01*
G54D10*
X349998Y833722D02*
X347332Y835500D01*
X344665Y834833D01*
X343332Y833278D01*
X343332Y825500D01*
G54D10*
X330443Y826611D02*
X332576Y825500D01*
X335243Y825500D01*
X337910Y826611D01*
X338443Y828833D01*
X338443Y832611D01*
X337110Y834833D01*
X334443Y835500D01*
X331776Y834833D01*
X330443Y833278D01*
X330443Y831056D01*
X338443Y831056D01*
G54D10*
X317554Y828167D02*
X317554Y832611D01*
X318887Y834833D01*
X321554Y835500D01*
X324221Y834833D01*
X325554Y832611D01*
X325554Y828167D01*
X324221Y825944D01*
X321554Y825500D01*
X318887Y825944D01*
X317554Y828167D01*
M02*
