%FSLAX34Y34*%
%MOMM*%
%LNSILK_TOP*%
G71*
G01*
%ADD10C, 0.10*%
%ADD11C, 4.00*%
%ADD12C, 2.00*%
%ADD13C, 2.00*%
%ADD14C, 1.60*%
%ADD15C, 1.80*%
%ADD16C, 1.00*%
%ADD17C, 1.80*%
%LPD*%
G54D10*
X698500Y850900D02*
X698500Y520700D01*
X393700Y520700D01*
G54D10*
X393700Y850900D02*
X698500Y850900D01*
G54D10*
X406400Y850900D02*
X241300Y850900D01*
X241300Y520700D01*
X406400Y520700D01*
X279400Y825500D02*
G54D11*
D03*
X520700Y800100D02*
G54D12*
D03*
X546100Y800100D02*
G54D12*
D03*
X419100Y571500D02*
G54D12*
D03*
X469900Y571500D02*
G54D12*
D03*
X495300Y571500D02*
G54D12*
D03*
X520700Y571500D02*
G54D12*
D03*
X546100Y571500D02*
G54D12*
D03*
X266700Y673100D02*
G54D12*
D03*
X266700Y698500D02*
G54D12*
D03*
X266700Y723900D02*
G54D12*
D03*
X266700Y762000D02*
G54D12*
D03*
X266700Y647700D02*
G54D12*
D03*
X266700Y622300D02*
G54D12*
D03*
X266700Y596900D02*
G54D12*
D03*
X266700Y787400D02*
G54D12*
D03*
X368300Y546100D02*
G54D12*
D03*
X342900Y546100D02*
G54D12*
D03*
X317500Y546100D02*
G54D12*
D03*
X660400Y749300D02*
G54D13*
D03*
X660400Y774700D02*
G54D13*
D03*
X266700Y571500D02*
G54D12*
D03*
X584200Y774700D02*
G54D13*
D03*
X584200Y749300D02*
G54D13*
D03*
X584200Y723900D02*
G54D13*
D03*
X660400Y723900D02*
G54D13*
D03*
X266700Y546100D02*
G54D12*
D03*
X584200Y698500D02*
G54D13*
D03*
X571500Y800100D02*
G54D12*
D03*
X596900Y800100D02*
G54D12*
D03*
X495300Y800100D02*
G54D12*
D03*
X469900Y800100D02*
G54D12*
D03*
X444500Y800100D02*
G54D12*
D03*
X419100Y800100D02*
G54D12*
D03*
G54D14*
X622300Y800100D02*
X622300Y838200D01*
X571500Y838200D01*
X571500Y825500D01*
X628650Y825500D01*
G54D14*
X609600Y825500D02*
X622300Y812800D01*
G54D14*
X558800Y838200D02*
X571500Y825500D01*
G54D14*
X603250Y838200D02*
X323850Y838200D01*
G54D14*
X584200Y825500D02*
X558800Y825500D01*
X546100Y838200D01*
G54D14*
X628650Y825500D02*
X628650Y806450D01*
X635000Y800100D01*
X647700Y800100D01*
X660400Y812800D01*
X654050Y812800D01*
X647700Y819150D01*
G54D10*
X241300Y850900D02*
X698500Y850900D01*
X698500Y520700D01*
X241300Y520700D01*
X241300Y850900D01*
X673100Y838200D02*
G54D15*
D03*
X673100Y533400D02*
G54D15*
D03*
G54D14*
X444500Y571500D02*
X444500Y533400D01*
X571500Y571500D02*
G54D12*
D03*
X596900Y571500D02*
G54D12*
D03*
G54D14*
X254000Y838200D02*
X323850Y838200D01*
G54D14*
X260350Y831850D02*
X260350Y819150D01*
X254000Y812800D01*
G54D16*
X266700Y838200D02*
X247650Y838200D01*
X247650Y533400D01*
X254000Y533400D01*
G54D16*
X431800Y527050D02*
X247650Y527050D01*
X247650Y552450D01*
G54D16*
X247650Y539750D02*
X260350Y527050D01*
G54D16*
X431800Y527050D02*
X692150Y527050D01*
X692150Y844550D01*
X247650Y844550D01*
X247650Y806450D01*
X254000Y800100D01*
G54D16*
X254000Y800100D02*
X254000Y793750D01*
X247650Y787400D01*
G54D14*
X342900Y546100D02*
X342900Y533400D01*
G54D16*
X342900Y546100D02*
X342900Y539750D01*
X355600Y527050D01*
G54D16*
X342900Y546100D02*
X342900Y539750D01*
X330200Y527050D01*
X673100Y812800D02*
G54D15*
D03*
X673100Y558800D02*
G54D15*
D03*
G54D14*
X266700Y571500D02*
X317500Y571500D01*
X317500Y546100D01*
G54D14*
X317500Y558800D02*
X304800Y571500D01*
G54D14*
X254000Y546100D02*
X292100Y546100D01*
X292100Y539750D01*
X285750Y533400D01*
G54D16*
X298450Y533400D02*
X304800Y527050D01*
G54D16*
X279400Y533400D02*
X254000Y533400D01*
X254000Y546100D01*
X266700Y533400D01*
X279400Y533400D01*
X368300Y596900D02*
G54D15*
D03*
X368300Y571500D02*
G54D15*
D03*
G54D14*
X368300Y571500D02*
X317500Y571500D01*
G54D14*
X330200Y571500D02*
X317500Y558800D01*
G54D14*
X393700Y571500D02*
X419100Y571500D01*
G54D14*
X368300Y546100D02*
X381000Y546100D01*
X393700Y558800D01*
X393700Y571500D01*
X393700Y558800D01*
X406400Y571500D01*
G54D16*
X266700Y546100D02*
X260350Y546100D01*
X247650Y558800D01*
G54D16*
X304800Y527050D02*
X292100Y539750D01*
X444500Y571500D02*
G54D12*
D03*
X495300Y546100D02*
G54D12*
D03*
X546100Y546100D02*
G54D12*
D03*
X520700Y546100D02*
G54D12*
D03*
X419100Y546100D02*
G54D13*
D03*
G54D16*
X444500Y546100D02*
X444500Y539750D01*
X431800Y527050D01*
G54D16*
X444500Y546100D02*
X444500Y539750D01*
X457200Y527050D01*
G54D14*
X368300Y546100D02*
X419100Y546100D01*
X419100Y571500D01*
X400050Y552450D01*
X660400Y698500D02*
G54D13*
D03*
X558800Y774700D02*
G54D13*
D03*
X558800Y749300D02*
G54D13*
D03*
X546100Y723900D02*
G54D13*
D03*
G54D14*
X584200Y774700D02*
X558800Y774700D01*
G54D14*
X660400Y774700D02*
X673100Y774700D01*
G54D14*
X660400Y698500D02*
X673100Y698500D01*
X520700Y596900D02*
G54D17*
D03*
X546100Y596900D02*
G54D17*
D03*
X546100Y673100D02*
G54D17*
D03*
G54D14*
X685800Y838200D02*
X685800Y533400D01*
G54D14*
X660400Y698500D02*
X685800Y698500D01*
G54D14*
X660400Y774700D02*
X685800Y774700D01*
G54D14*
X520700Y596900D02*
X520700Y571500D01*
G54D14*
X546100Y596900D02*
X546100Y571500D01*
X368300Y774700D02*
G54D17*
D03*
X444500Y774700D02*
G54D17*
D03*
X444500Y749300D02*
G54D17*
D03*
X444500Y723900D02*
G54D17*
D03*
X368300Y749300D02*
G54D17*
D03*
X368300Y723900D02*
G54D17*
D03*
X368300Y698500D02*
G54D17*
D03*
X368300Y673100D02*
G54D17*
D03*
X368300Y647700D02*
G54D17*
D03*
X368300Y622300D02*
G54D17*
D03*
X444500Y698500D02*
G54D17*
D03*
X444500Y673100D02*
G54D17*
D03*
X444500Y647700D02*
G54D17*
D03*
X444500Y622300D02*
G54D17*
D03*
G54D14*
X266700Y787400D02*
X254000Y787400D01*
G54D14*
X254000Y793750D02*
X254000Y800100D01*
X279400Y825500D01*
X266700Y825500D01*
X304800Y825500D01*
X298450Y825500D01*
X273050Y800100D01*
X254000Y800100D01*
G54D14*
X368300Y749300D02*
X336550Y749300D01*
X285750Y698500D01*
X266700Y698500D01*
G54D14*
X368300Y723900D02*
X342900Y723900D01*
X292100Y673100D01*
X266700Y673100D01*
G54D14*
X444500Y622300D02*
X419100Y622300D01*
X419100Y698500D01*
X444500Y698500D01*
X546100Y749300D02*
G54D13*
D03*
G54D14*
X520700Y800100D02*
X520700Y793750D01*
X501650Y774700D01*
X444500Y774700D01*
G54D14*
X584200Y774700D02*
X533400Y774700D01*
X508000Y749300D01*
X444500Y749300D01*
G54D14*
X584200Y698500D02*
X571500Y698500D01*
X546100Y723900D01*
X444500Y723900D01*
G54D14*
X584200Y723900D02*
X584200Y749300D01*
X546100Y749300D01*
G54D14*
X419100Y698500D02*
X419100Y800100D01*
G54D14*
X266700Y647700D02*
X298450Y647700D01*
X349250Y698500D01*
X368300Y698500D01*
G54D14*
X368300Y622300D02*
X342900Y622300D01*
G54D14*
X368300Y673100D02*
X355600Y673100D01*
X304800Y622300D01*
X266700Y622300D01*
G54D14*
X317500Y596900D02*
X342900Y596900D01*
X342900Y622300D01*
G54D14*
X368300Y622300D02*
X355600Y622300D01*
X330200Y596900D01*
G54D14*
X266700Y723900D02*
X279400Y723900D01*
X330200Y774700D01*
X368300Y774700D01*
G54D14*
X571500Y749300D02*
X584200Y736600D01*
G54D14*
X584200Y723900D02*
X558800Y749300D01*
G54D14*
X368300Y647700D02*
X368300Y673100D01*
G54D14*
X368300Y647700D02*
X330200Y647700D01*
X342900Y647700D01*
X355600Y660400D01*
G54D14*
X368300Y622300D02*
X342900Y622300D01*
X317500Y596900D01*
X266700Y596900D01*
G54D14*
X444500Y698500D02*
X431800Y698500D01*
X419100Y711200D01*
G54D14*
X444500Y698500D02*
X431800Y698500D01*
X419100Y685800D01*
G54D14*
X444500Y622300D02*
X431800Y622300D01*
X419100Y635000D01*
G54D14*
X571500Y660400D02*
X584200Y673100D01*
G54D14*
X609600Y774700D02*
X685800Y774700D01*
G54D14*
X609600Y774700D02*
X622300Y787400D01*
X622300Y812800D01*
G54D14*
X609600Y774700D02*
X609600Y749300D01*
X635000Y774700D01*
X673100Y774700D01*
X685800Y762000D01*
G54D14*
X679450Y781050D02*
X628650Y781050D01*
X622300Y787400D01*
X666750Y787400D01*
X673100Y793750D01*
X673100Y838200D01*
X641350Y838200D01*
X635000Y831850D01*
X628650Y831850D01*
X622300Y838200D01*
X628650Y838200D01*
X647700Y819150D01*
X654050Y819150D01*
X660400Y825500D01*
X654050Y825500D01*
X647700Y819150D01*
X641350Y819150D01*
X628650Y806450D01*
X641350Y806450D01*
X647700Y800100D01*
X660400Y812800D01*
X660400Y793750D01*
G54D14*
X660400Y698500D02*
X673100Y698500D01*
X685800Y711200D01*
G54D14*
X520700Y673100D02*
X501650Y673100D01*
X476250Y647700D01*
X444500Y647700D01*
G54D14*
X546100Y673100D02*
X546100Y685800D01*
X533400Y698500D01*
X495300Y698500D01*
X469900Y673100D01*
X444500Y673100D01*
G54D14*
X571500Y660400D02*
X571500Y673100D01*
X584200Y673100D01*
X463550Y698500D02*
G54D17*
D03*
X463550Y774700D02*
G54D17*
D03*
G54D14*
X463550Y698500D02*
X444500Y698500D01*
G54D14*
X368300Y596900D02*
X374650Y596900D01*
X400050Y622300D01*
X444500Y622300D01*
G54D14*
X419100Y800100D02*
X393700Y774700D01*
X393700Y615950D01*
X374650Y596900D01*
X368300Y596900D01*
G54D14*
X609600Y654050D02*
X635000Y679450D01*
G54D14*
X660400Y723900D02*
X647700Y723900D01*
X635000Y711200D01*
X635000Y679450D01*
G54D14*
X565150Y622300D02*
X577850Y622300D01*
X609600Y654050D01*
X622300Y635000D02*
G54D17*
D03*
X647700Y635000D02*
G54D17*
D03*
G54D14*
X609600Y654050D02*
X615950Y660400D01*
X628650Y660400D01*
X628650Y673100D01*
X635000Y679450D01*
G54D14*
X622300Y635000D02*
X622300Y596900D01*
X571500Y596900D01*
G54D14*
X635000Y571500D02*
X622300Y571500D01*
X622300Y596900D01*
G54D14*
X622300Y635000D02*
X584200Y596900D01*
X609600Y596900D01*
X609600Y609600D01*
X615950Y615950D01*
G54D14*
X609600Y596900D02*
X622300Y584200D01*
G54D14*
X635000Y571500D02*
X635000Y609600D01*
X622300Y622300D01*
X622300Y635000D01*
G54D14*
X673100Y558800D02*
X673100Y685800D01*
X673100Y666750D01*
X660400Y654050D01*
X660400Y615950D01*
X520700Y673100D02*
G54D17*
D03*
G54D14*
X400050Y622300D02*
X400050Y774700D01*
X406400Y781050D01*
X406400Y635000D01*
G54D16*
X266700Y787400D02*
X260350Y787400D01*
X247650Y774700D01*
G54D16*
X247650Y742950D02*
X273050Y742950D01*
X254000Y742950D01*
X247650Y749300D01*
G54D16*
X254000Y742950D02*
X247650Y736600D01*
G54D14*
X469900Y609600D02*
X469900Y622300D01*
X482600Y622300D01*
G54D14*
X495300Y698500D02*
X485775Y698500D01*
X485775Y688975D01*
X479425Y682625D01*
G54D14*
X368300Y546100D02*
X419100Y546100D01*
X419100Y571500D01*
X393700Y571500D01*
X393700Y558800D01*
X381000Y546100D01*
X393700Y546100D01*
X400050Y552450D01*
X400050Y565150D01*
X406400Y571500D01*
G54D14*
X444500Y596900D02*
X428625Y596900D01*
X419100Y587375D01*
X419100Y571500D01*
G54D14*
X400050Y565150D02*
X400050Y568325D01*
X419100Y587375D01*
G54D14*
X374650Y596900D02*
X393700Y596900D01*
X419100Y622300D01*
G54D14*
X495300Y571500D02*
X495300Y603250D01*
X514350Y622300D01*
X577850Y622300D01*
X635000Y679450D01*
X635000Y711200D01*
X647700Y723900D01*
X660400Y723900D01*
G54D14*
X660400Y749300D02*
X641350Y749300D01*
X609600Y717550D01*
X609600Y685800D01*
X571500Y647700D01*
X508000Y647700D01*
X469900Y609600D01*
X469900Y571500D01*
G54D14*
X571500Y673100D02*
X571500Y647700D01*
X571500Y673100D01*
X596900Y673100D01*
X444500Y546100D02*
G54D13*
D03*
G54D14*
X495300Y546100D02*
X444500Y546100D01*
G54D14*
X444500Y558800D02*
X457200Y546100D01*
G54D14*
X495300Y546100D02*
X495300Y533400D01*
X457200Y533400D01*
G54D14*
X520700Y546100D02*
X520700Y571500D01*
G54D14*
X546100Y546100D02*
X546100Y571500D01*
X571500Y546100D02*
G54D12*
D03*
G54D14*
X571500Y546100D02*
X615950Y546100D01*
X622300Y552450D01*
X622300Y571500D01*
G54D14*
X635000Y571500D02*
X635000Y565150D01*
X615950Y546100D01*
G54D14*
X647700Y533400D02*
X673100Y533400D01*
X673100Y546100D01*
X666750Y546100D01*
X660400Y539750D01*
G54D16*
X641350Y539750D02*
X628650Y527050D01*
G54D16*
X495300Y546100D02*
X495300Y539750D01*
X508000Y527050D01*
G54D14*
X558800Y647700D02*
X571500Y660400D01*
G54D14*
X660400Y615950D02*
X660400Y539750D01*
G54D14*
X647700Y635000D02*
X647700Y628650D01*
X660400Y615950D01*
G54D16*
X641350Y539750D02*
X660400Y558800D01*
X660400Y546100D01*
X647700Y533400D01*
X647700Y539750D01*
X654050Y546100D01*
G54D14*
X647700Y635000D02*
X647700Y641350D01*
X660400Y654050D01*
X660400Y698500D01*
G54D14*
X635000Y679450D02*
X635000Y666750D01*
X628650Y660400D01*
X673100Y635000D02*
G54D17*
D03*
X317500Y800100D02*
G54D13*
D03*
X393700Y800100D02*
G54D13*
D03*
G54D14*
X355600Y825500D02*
X368300Y838200D01*
G54D14*
X393700Y800100D02*
X393700Y774700D01*
G54D14*
X393700Y800100D02*
X419100Y800100D01*
G54D14*
X266700Y762000D02*
X285750Y762000D01*
X311150Y787400D01*
G54D14*
X266700Y787400D02*
X273050Y787400D01*
X292100Y806450D01*
X292100Y819150D01*
X298450Y825500D01*
G54D14*
X304800Y825500D02*
X355600Y825500D01*
G54D14*
X285750Y812800D02*
X292100Y812800D01*
X304800Y825500D01*
G54D14*
X355600Y825500D02*
X571500Y825500D01*
G54D14*
X317500Y800100D02*
X317500Y793750D01*
X292100Y768350D01*
M02*
