; Drill file
; Format: 2.4 (00.0000)
M48
INCH
T01C0.0315
T02C0.0394
T03C0.0787
%
G05
G90
T01
X016500Y021500
X017500Y021500
X017500Y024500
X017500Y025500
X017500Y026500
X017500Y027500
X018250Y027500
X017500Y028500
X017500Y029500
X017500Y030500
X018250Y030500
X015500Y031500
X014500Y030500
X014500Y029500
X014500Y028500
X014500Y027500
X014500Y026500
X014500Y025500
X014500Y024500
X020500Y023500
X021500Y023500
X021500Y026500
X020500Y026500
X021500Y028500
X021500Y029500
X022000Y029500
X023000Y029500
X023000Y030500
X022000Y030500
X023000Y028500
X023000Y027500
X024500Y025000
X025500Y025000
X026500Y025000
X026000Y027500
X026000Y028500
X026000Y029500
X026000Y030500
X012500Y031500
T02
X010500Y021500
X010500Y022500
X010500Y023500
X010500Y024500
X010500Y025500
X010500Y026500
X010500Y027500
X010500Y028500
X010500Y030000
X010500Y031000
X016500Y031500
X017500Y031500
X018500Y031500
X019500Y031500
X020500Y031500
X021500Y031500
X022500Y031500
X023500Y031500
X026500Y032000
X026500Y033000
X023500Y022500
X022500Y022500
X021500Y022500
X020500Y022500
X019500Y022500
X018500Y022500
X017500Y022500
X016500Y022500
X014500Y022500
X014500Y021500
X013500Y021500
X012500Y021500
X014500Y023500
X019500Y021500
X020500Y021500
X021500Y021500
X022500Y021500
X026500Y021000
X026500Y022000
T03
X011000Y032500
M30
