%FSLAX34Y34*%
%MOMM*%
%LNSOLDERMASK_BOTTOM*%
G71*
G01*
%ADD10C, 4.60*%
%ADD11C, 2.60*%
%ADD12C, 2.60*%
%ADD13C, 2.40*%
%ADD14C, 2.40*%
%LPD*%
X279400Y825500D02*
G54D10*
D03*
X520700Y800100D02*
G54D11*
D03*
X546100Y800100D02*
G54D11*
D03*
X419100Y571500D02*
G54D11*
D03*
X469900Y571500D02*
G54D11*
D03*
X495300Y571500D02*
G54D11*
D03*
X520700Y571500D02*
G54D11*
D03*
X546100Y571500D02*
G54D11*
D03*
X266700Y673100D02*
G54D11*
D03*
X266700Y698500D02*
G54D11*
D03*
X266700Y723900D02*
G54D11*
D03*
X266700Y762000D02*
G54D11*
D03*
X266700Y647700D02*
G54D11*
D03*
X266700Y622300D02*
G54D11*
D03*
X266700Y596900D02*
G54D11*
D03*
X266700Y787400D02*
G54D11*
D03*
X368300Y546100D02*
G54D11*
D03*
X342900Y546100D02*
G54D11*
D03*
X317500Y546100D02*
G54D11*
D03*
X660400Y749300D02*
G54D12*
D03*
X660400Y774700D02*
G54D12*
D03*
X266700Y571500D02*
G54D11*
D03*
X584200Y774700D02*
G54D12*
D03*
X584200Y749300D02*
G54D12*
D03*
X584200Y723900D02*
G54D12*
D03*
X660400Y723900D02*
G54D12*
D03*
X266700Y546100D02*
G54D11*
D03*
X584200Y698500D02*
G54D12*
D03*
X571500Y800100D02*
G54D11*
D03*
X596900Y800100D02*
G54D11*
D03*
X495300Y800100D02*
G54D11*
D03*
X469900Y800100D02*
G54D11*
D03*
X444500Y800100D02*
G54D11*
D03*
X419100Y800100D02*
G54D11*
D03*
X673100Y838200D02*
G54D13*
D03*
X673100Y533400D02*
G54D13*
D03*
X571500Y571500D02*
G54D11*
D03*
X596900Y571500D02*
G54D11*
D03*
X673100Y812800D02*
G54D13*
D03*
X673100Y558800D02*
G54D13*
D03*
X368300Y596900D02*
G54D13*
D03*
X368300Y571500D02*
G54D13*
D03*
X444500Y571500D02*
G54D11*
D03*
X495300Y546100D02*
G54D11*
D03*
X546100Y546100D02*
G54D11*
D03*
X520700Y546100D02*
G54D11*
D03*
X419100Y546100D02*
G54D12*
D03*
X660400Y698500D02*
G54D12*
D03*
X558800Y774700D02*
G54D12*
D03*
X558800Y749300D02*
G54D12*
D03*
X546100Y723900D02*
G54D12*
D03*
X520700Y596900D02*
G54D14*
D03*
X546100Y596900D02*
G54D14*
D03*
X546100Y673100D02*
G54D14*
D03*
X368300Y774700D02*
G54D14*
D03*
X444500Y774700D02*
G54D14*
D03*
X444500Y749300D02*
G54D14*
D03*
X444500Y723900D02*
G54D14*
D03*
X368300Y749300D02*
G54D14*
D03*
X368300Y723900D02*
G54D14*
D03*
X368300Y698500D02*
G54D14*
D03*
X368300Y673100D02*
G54D14*
D03*
X368300Y647700D02*
G54D14*
D03*
X368300Y622300D02*
G54D14*
D03*
X444500Y698500D02*
G54D14*
D03*
X444500Y673100D02*
G54D14*
D03*
X444500Y647700D02*
G54D14*
D03*
X444500Y622300D02*
G54D14*
D03*
X546100Y749300D02*
G54D12*
D03*
X463550Y698500D02*
G54D14*
D03*
X463550Y774700D02*
G54D14*
D03*
X622300Y635000D02*
G54D14*
D03*
X647700Y635000D02*
G54D14*
D03*
X520700Y673100D02*
G54D14*
D03*
X444500Y546100D02*
G54D12*
D03*
X571500Y546100D02*
G54D11*
D03*
X673100Y635000D02*
G54D14*
D03*
X317500Y800100D02*
G54D12*
D03*
X393700Y800100D02*
G54D12*
D03*
M02*
