G04 #@! TF.GenerationSoftware,KiCad,Pcbnew,(5.1.0)-1*
G04 #@! TF.CreationDate,2019-06-12T07:31:52+02:00*
G04 #@! TF.ProjectId,SRCtrl_V3,53524374-726c-45f5-9633-2e6b69636164,rev?*
G04 #@! TF.SameCoordinates,Original*
G04 #@! TF.FileFunction,Legend,Top*
G04 #@! TF.FilePolarity,Positive*
%FSLAX46Y46*%
G04 Gerber Fmt 4.6, Leading zero omitted, Abs format (unit mm)*
G04 Created by KiCad (PCBNEW (5.1.0)-1) date 2019-06-12 07:31:52*
%MOMM*%
%LPD*%
G04 APERTURE LIST*
%ADD10C,0.127000*%
%ADD11C,0.120000*%
%ADD12C,0.150000*%
G04 APERTURE END LIST*
D10*
X163482261Y-27425952D02*
X164117261Y-27214285D01*
X163482261Y-27002619D01*
X164087023Y-26518809D02*
X164117261Y-26579285D01*
X164117261Y-26700238D01*
X164087023Y-26760714D01*
X164056785Y-26790952D01*
X163996309Y-26821190D01*
X163814880Y-26821190D01*
X163754404Y-26790952D01*
X163724166Y-26760714D01*
X163693928Y-26700238D01*
X163693928Y-26579285D01*
X163724166Y-26518809D01*
X164087023Y-25974523D02*
X164117261Y-26035000D01*
X164117261Y-26155952D01*
X164087023Y-26216428D01*
X164056785Y-26246666D01*
X163996309Y-26276904D01*
X163814880Y-26276904D01*
X163754404Y-26246666D01*
X163724166Y-26216428D01*
X163693928Y-26155952D01*
X163693928Y-26035000D01*
X163724166Y-25974523D01*
X166657261Y-27168928D02*
X166022261Y-27168928D01*
X166022261Y-27017738D01*
X166052500Y-26927023D01*
X166112976Y-26866547D01*
X166173452Y-26836309D01*
X166294404Y-26806071D01*
X166385119Y-26806071D01*
X166506071Y-26836309D01*
X166566547Y-26866547D01*
X166627023Y-26927023D01*
X166657261Y-27017738D01*
X166657261Y-27168928D01*
X166717738Y-26110595D02*
X166687500Y-26171071D01*
X166627023Y-26231547D01*
X166536309Y-26322261D01*
X166506071Y-26382738D01*
X166506071Y-26443214D01*
X166657261Y-26412976D02*
X166627023Y-26473452D01*
X166566547Y-26533928D01*
X166445595Y-26564166D01*
X166233928Y-26564166D01*
X166112976Y-26533928D01*
X166052500Y-26473452D01*
X166022261Y-26412976D01*
X166022261Y-26292023D01*
X166052500Y-26231547D01*
X166112976Y-26171071D01*
X166233928Y-26140833D01*
X166445595Y-26140833D01*
X166566547Y-26171071D01*
X166627023Y-26231547D01*
X166657261Y-26292023D01*
X166657261Y-26412976D01*
X168592500Y-27153809D02*
X168562261Y-27214285D01*
X168562261Y-27305000D01*
X168592500Y-27395714D01*
X168652976Y-27456190D01*
X168713452Y-27486428D01*
X168834404Y-27516666D01*
X168925119Y-27516666D01*
X169046071Y-27486428D01*
X169106547Y-27456190D01*
X169167023Y-27395714D01*
X169197261Y-27305000D01*
X169197261Y-27244523D01*
X169167023Y-27153809D01*
X169136785Y-27123571D01*
X168925119Y-27123571D01*
X168925119Y-27244523D01*
X169197261Y-26851428D02*
X168562261Y-26851428D01*
X169197261Y-26488571D01*
X168562261Y-26488571D01*
X169197261Y-26186190D02*
X168562261Y-26186190D01*
X168562261Y-26035000D01*
X168592500Y-25944285D01*
X168652976Y-25883809D01*
X168713452Y-25853571D01*
X168834404Y-25823333D01*
X168925119Y-25823333D01*
X169046071Y-25853571D01*
X169106547Y-25883809D01*
X169167023Y-25944285D01*
X169197261Y-26035000D01*
X169197261Y-26186190D01*
X130492500Y-57633809D02*
X130462261Y-57694285D01*
X130462261Y-57785000D01*
X130492500Y-57875714D01*
X130552976Y-57936190D01*
X130613452Y-57966428D01*
X130734404Y-57996666D01*
X130825119Y-57996666D01*
X130946071Y-57966428D01*
X131006547Y-57936190D01*
X131067023Y-57875714D01*
X131097261Y-57785000D01*
X131097261Y-57724523D01*
X131067023Y-57633809D01*
X131036785Y-57603571D01*
X130825119Y-57603571D01*
X130825119Y-57724523D01*
X131097261Y-57331428D02*
X130462261Y-57331428D01*
X131097261Y-56968571D01*
X130462261Y-56968571D01*
X131097261Y-56666190D02*
X130462261Y-56666190D01*
X130462261Y-56515000D01*
X130492500Y-56424285D01*
X130552976Y-56363809D01*
X130613452Y-56333571D01*
X130734404Y-56303333D01*
X130825119Y-56303333D01*
X130946071Y-56333571D01*
X131006547Y-56363809D01*
X131067023Y-56424285D01*
X131097261Y-56515000D01*
X131097261Y-56666190D01*
X133637261Y-57633809D02*
X133002261Y-57633809D01*
X133304642Y-57633809D02*
X133304642Y-57270952D01*
X133637261Y-57270952D02*
X133002261Y-57270952D01*
X133607023Y-56998809D02*
X133637261Y-56908095D01*
X133637261Y-56756904D01*
X133607023Y-56696428D01*
X133576785Y-56666190D01*
X133516309Y-56635952D01*
X133455833Y-56635952D01*
X133395357Y-56666190D01*
X133365119Y-56696428D01*
X133334880Y-56756904D01*
X133304642Y-56877857D01*
X133274404Y-56938333D01*
X133244166Y-56968571D01*
X133183690Y-56998809D01*
X133123214Y-56998809D01*
X133062738Y-56968571D01*
X133032500Y-56938333D01*
X133002261Y-56877857D01*
X133002261Y-56726666D01*
X133032500Y-56635952D01*
X135542261Y-57966428D02*
X135542261Y-57603571D01*
X136177261Y-57785000D02*
X135542261Y-57785000D01*
X135542261Y-57270952D02*
X135542261Y-57150000D01*
X135572500Y-57089523D01*
X135632976Y-57029047D01*
X135753928Y-56998809D01*
X135965595Y-56998809D01*
X136086547Y-57029047D01*
X136147023Y-57089523D01*
X136177261Y-57150000D01*
X136177261Y-57270952D01*
X136147023Y-57331428D01*
X136086547Y-57391904D01*
X135965595Y-57422142D01*
X135753928Y-57422142D01*
X135632976Y-57391904D01*
X135572500Y-57331428D01*
X135542261Y-57270952D01*
X135602738Y-56756904D02*
X135572500Y-56726666D01*
X135542261Y-56666190D01*
X135542261Y-56515000D01*
X135572500Y-56454523D01*
X135602738Y-56424285D01*
X135663214Y-56394047D01*
X135723690Y-56394047D01*
X135814404Y-56424285D01*
X136177261Y-56787142D01*
X136177261Y-56394047D01*
X138082261Y-57981547D02*
X138082261Y-57618690D01*
X138717261Y-57800119D02*
X138082261Y-57800119D01*
X138082261Y-57286071D02*
X138082261Y-57165119D01*
X138112500Y-57104642D01*
X138172976Y-57044166D01*
X138293928Y-57013928D01*
X138505595Y-57013928D01*
X138626547Y-57044166D01*
X138687023Y-57104642D01*
X138717261Y-57165119D01*
X138717261Y-57286071D01*
X138687023Y-57346547D01*
X138626547Y-57407023D01*
X138505595Y-57437261D01*
X138293928Y-57437261D01*
X138172976Y-57407023D01*
X138112500Y-57346547D01*
X138082261Y-57286071D01*
X138656785Y-56378928D02*
X138687023Y-56409166D01*
X138717261Y-56499880D01*
X138717261Y-56560357D01*
X138687023Y-56651071D01*
X138626547Y-56711547D01*
X138566071Y-56741785D01*
X138445119Y-56772023D01*
X138354404Y-56772023D01*
X138233452Y-56741785D01*
X138172976Y-56711547D01*
X138112500Y-56651071D01*
X138082261Y-56560357D01*
X138082261Y-56499880D01*
X138112500Y-56409166D01*
X138142738Y-56378928D01*
X140622261Y-57966428D02*
X140622261Y-57603571D01*
X141257261Y-57785000D02*
X140622261Y-57785000D01*
X140622261Y-57270952D02*
X140622261Y-57150000D01*
X140652500Y-57089523D01*
X140712976Y-57029047D01*
X140833928Y-56998809D01*
X141045595Y-56998809D01*
X141166547Y-57029047D01*
X141227023Y-57089523D01*
X141257261Y-57150000D01*
X141257261Y-57270952D01*
X141227023Y-57331428D01*
X141166547Y-57391904D01*
X141045595Y-57422142D01*
X140833928Y-57422142D01*
X140712976Y-57391904D01*
X140652500Y-57331428D01*
X140622261Y-57270952D01*
X141257261Y-56394047D02*
X141257261Y-56756904D01*
X141257261Y-56575476D02*
X140622261Y-56575476D01*
X140712976Y-56635952D01*
X140773452Y-56696428D01*
X140803690Y-56756904D01*
X143797261Y-57815238D02*
X143162261Y-57815238D01*
X143615833Y-57603571D01*
X143162261Y-57391904D01*
X143797261Y-57391904D01*
X143797261Y-57089523D02*
X143162261Y-57089523D01*
X143797261Y-56454523D02*
X143797261Y-56817380D01*
X143797261Y-56635952D02*
X143162261Y-56635952D01*
X143252976Y-56696428D01*
X143313452Y-56756904D01*
X143343690Y-56817380D01*
X146337261Y-57815238D02*
X145702261Y-57815238D01*
X146155833Y-57603571D01*
X145702261Y-57391904D01*
X146337261Y-57391904D01*
X146337261Y-57089523D02*
X145702261Y-57089523D01*
X145762738Y-56817380D02*
X145732500Y-56787142D01*
X145702261Y-56726666D01*
X145702261Y-56575476D01*
X145732500Y-56515000D01*
X145762738Y-56484761D01*
X145823214Y-56454523D01*
X145883690Y-56454523D01*
X145974404Y-56484761D01*
X146337261Y-56847619D01*
X146337261Y-56454523D01*
X148302738Y-57905952D02*
X148272500Y-57875714D01*
X148242261Y-57815238D01*
X148242261Y-57664047D01*
X148272500Y-57603571D01*
X148302738Y-57573333D01*
X148363214Y-57543095D01*
X148423690Y-57543095D01*
X148514404Y-57573333D01*
X148877261Y-57936190D01*
X148877261Y-57543095D01*
X148453928Y-56998809D02*
X148877261Y-56998809D01*
X148212023Y-57150000D02*
X148665595Y-57301190D01*
X148665595Y-56908095D01*
X148242261Y-56756904D02*
X148877261Y-56545238D01*
X148242261Y-56333571D01*
X168562261Y-58087380D02*
X168562261Y-57694285D01*
X168804166Y-57905952D01*
X168804166Y-57815238D01*
X168834404Y-57754761D01*
X168864642Y-57724523D01*
X168925119Y-57694285D01*
X169076309Y-57694285D01*
X169136785Y-57724523D01*
X169167023Y-57754761D01*
X169197261Y-57815238D01*
X169197261Y-57996666D01*
X169167023Y-58057142D01*
X169136785Y-58087380D01*
X169136785Y-57422142D02*
X169167023Y-57391904D01*
X169197261Y-57422142D01*
X169167023Y-57452380D01*
X169136785Y-57422142D01*
X169197261Y-57422142D01*
X168562261Y-57180238D02*
X168562261Y-56787142D01*
X168804166Y-56998809D01*
X168804166Y-56908095D01*
X168834404Y-56847619D01*
X168864642Y-56817380D01*
X168925119Y-56787142D01*
X169076309Y-56787142D01*
X169136785Y-56817380D01*
X169167023Y-56847619D01*
X169197261Y-56908095D01*
X169197261Y-57089523D01*
X169167023Y-57150000D01*
X169136785Y-57180238D01*
X168562261Y-56605714D02*
X169197261Y-56394047D01*
X168562261Y-56182380D01*
X166052500Y-57633809D02*
X166022261Y-57694285D01*
X166022261Y-57785000D01*
X166052500Y-57875714D01*
X166112976Y-57936190D01*
X166173452Y-57966428D01*
X166294404Y-57996666D01*
X166385119Y-57996666D01*
X166506071Y-57966428D01*
X166566547Y-57936190D01*
X166627023Y-57875714D01*
X166657261Y-57785000D01*
X166657261Y-57724523D01*
X166627023Y-57633809D01*
X166596785Y-57603571D01*
X166385119Y-57603571D01*
X166385119Y-57724523D01*
X166657261Y-57331428D02*
X166022261Y-57331428D01*
X166657261Y-56968571D01*
X166022261Y-56968571D01*
X166657261Y-56666190D02*
X166022261Y-56666190D01*
X166022261Y-56515000D01*
X166052500Y-56424285D01*
X166112976Y-56363809D01*
X166173452Y-56333571D01*
X166294404Y-56303333D01*
X166385119Y-56303333D01*
X166506071Y-56333571D01*
X166566547Y-56363809D01*
X166627023Y-56424285D01*
X166657261Y-56515000D01*
X166657261Y-56666190D01*
X163542738Y-57905952D02*
X163512500Y-57875714D01*
X163482261Y-57815238D01*
X163482261Y-57664047D01*
X163512500Y-57603571D01*
X163542738Y-57573333D01*
X163603214Y-57543095D01*
X163663690Y-57543095D01*
X163754404Y-57573333D01*
X164117261Y-57936190D01*
X164117261Y-57543095D01*
X163693928Y-56998809D02*
X164117261Y-56998809D01*
X163452023Y-57150000D02*
X163905595Y-57301190D01*
X163905595Y-56908095D01*
X163482261Y-56756904D02*
X164117261Y-56545238D01*
X163482261Y-56333571D01*
X92183857Y-57458428D02*
X92292714Y-57494714D01*
X92474142Y-57494714D01*
X92546714Y-57458428D01*
X92583000Y-57422142D01*
X92619285Y-57349571D01*
X92619285Y-57277000D01*
X92583000Y-57204428D01*
X92546714Y-57168142D01*
X92474142Y-57131857D01*
X92329000Y-57095571D01*
X92256428Y-57059285D01*
X92220142Y-57023000D01*
X92183857Y-56950428D01*
X92183857Y-56877857D01*
X92220142Y-56805285D01*
X92256428Y-56769000D01*
X92329000Y-56732714D01*
X92510428Y-56732714D01*
X92619285Y-56769000D01*
X93381285Y-57494714D02*
X93127285Y-57131857D01*
X92945857Y-57494714D02*
X92945857Y-56732714D01*
X93236142Y-56732714D01*
X93308714Y-56769000D01*
X93345000Y-56805285D01*
X93381285Y-56877857D01*
X93381285Y-56986714D01*
X93345000Y-57059285D01*
X93308714Y-57095571D01*
X93236142Y-57131857D01*
X92945857Y-57131857D01*
X94143285Y-57422142D02*
X94107000Y-57458428D01*
X93998142Y-57494714D01*
X93925571Y-57494714D01*
X93816714Y-57458428D01*
X93744142Y-57385857D01*
X93707857Y-57313285D01*
X93671571Y-57168142D01*
X93671571Y-57059285D01*
X93707857Y-56914142D01*
X93744142Y-56841571D01*
X93816714Y-56769000D01*
X93925571Y-56732714D01*
X93998142Y-56732714D01*
X94107000Y-56769000D01*
X94143285Y-56805285D01*
X94361000Y-56986714D02*
X94651285Y-56986714D01*
X94469857Y-56732714D02*
X94469857Y-57385857D01*
X94506142Y-57458428D01*
X94578714Y-57494714D01*
X94651285Y-57494714D01*
X94905285Y-57494714D02*
X94905285Y-56986714D01*
X94905285Y-57131857D02*
X94941571Y-57059285D01*
X94977857Y-57023000D01*
X95050428Y-56986714D01*
X95123000Y-56986714D01*
X95485857Y-57494714D02*
X95413285Y-57458428D01*
X95377000Y-57385857D01*
X95377000Y-56732714D01*
X96792142Y-57494714D02*
X96538142Y-57131857D01*
X96356714Y-57494714D02*
X96356714Y-56732714D01*
X96647000Y-56732714D01*
X96719571Y-56769000D01*
X96755857Y-56805285D01*
X96792142Y-56877857D01*
X96792142Y-56986714D01*
X96755857Y-57059285D01*
X96719571Y-57095571D01*
X96647000Y-57131857D01*
X96356714Y-57131857D01*
X97409000Y-57458428D02*
X97336428Y-57494714D01*
X97191285Y-57494714D01*
X97118714Y-57458428D01*
X97082428Y-57385857D01*
X97082428Y-57095571D01*
X97118714Y-57023000D01*
X97191285Y-56986714D01*
X97336428Y-56986714D01*
X97409000Y-57023000D01*
X97445285Y-57095571D01*
X97445285Y-57168142D01*
X97082428Y-57240714D01*
X97699285Y-56986714D02*
X97880714Y-57494714D01*
X98062142Y-56986714D01*
X98751571Y-57494714D02*
X98316142Y-57494714D01*
X98533857Y-57494714D02*
X98533857Y-56732714D01*
X98461285Y-56841571D01*
X98388714Y-56914142D01*
X98316142Y-56950428D01*
X99078142Y-57422142D02*
X99114428Y-57458428D01*
X99078142Y-57494714D01*
X99041857Y-57458428D01*
X99078142Y-57422142D01*
X99078142Y-57494714D01*
X99586142Y-56732714D02*
X99658714Y-56732714D01*
X99731285Y-56769000D01*
X99767571Y-56805285D01*
X99803857Y-56877857D01*
X99840142Y-57023000D01*
X99840142Y-57204428D01*
X99803857Y-57349571D01*
X99767571Y-57422142D01*
X99731285Y-57458428D01*
X99658714Y-57494714D01*
X99586142Y-57494714D01*
X99513571Y-57458428D01*
X99477285Y-57422142D01*
X99441000Y-57349571D01*
X99404714Y-57204428D01*
X99404714Y-57023000D01*
X99441000Y-56877857D01*
X99477285Y-56805285D01*
X99513571Y-56769000D01*
X99586142Y-56732714D01*
X100747285Y-57494714D02*
X100747285Y-56732714D01*
X100747285Y-57023000D02*
X100819857Y-56986714D01*
X100965000Y-56986714D01*
X101037571Y-57023000D01*
X101073857Y-57059285D01*
X101110142Y-57131857D01*
X101110142Y-57349571D01*
X101073857Y-57422142D01*
X101037571Y-57458428D01*
X100965000Y-57494714D01*
X100819857Y-57494714D01*
X100747285Y-57458428D01*
X101364142Y-56986714D02*
X101545571Y-57494714D01*
X101727000Y-56986714D02*
X101545571Y-57494714D01*
X101473000Y-57676142D01*
X101436714Y-57712428D01*
X101364142Y-57748714D01*
X102851857Y-57095571D02*
X102960714Y-57131857D01*
X102997000Y-57168142D01*
X103033285Y-57240714D01*
X103033285Y-57349571D01*
X102997000Y-57422142D01*
X102960714Y-57458428D01*
X102888142Y-57494714D01*
X102597857Y-57494714D01*
X102597857Y-56732714D01*
X102851857Y-56732714D01*
X102924428Y-56769000D01*
X102960714Y-56805285D01*
X102997000Y-56877857D01*
X102997000Y-56950428D01*
X102960714Y-57023000D01*
X102924428Y-57059285D01*
X102851857Y-57095571D01*
X102597857Y-57095571D01*
X103359857Y-57494714D02*
X103359857Y-56986714D01*
X103359857Y-56732714D02*
X103323571Y-56769000D01*
X103359857Y-56805285D01*
X103396142Y-56769000D01*
X103359857Y-56732714D01*
X103359857Y-56805285D01*
X104049285Y-56986714D02*
X104049285Y-57603571D01*
X104013000Y-57676142D01*
X103976714Y-57712428D01*
X103904142Y-57748714D01*
X103795285Y-57748714D01*
X103722714Y-57712428D01*
X104049285Y-57458428D02*
X103976714Y-57494714D01*
X103831571Y-57494714D01*
X103759000Y-57458428D01*
X103722714Y-57422142D01*
X103686428Y-57349571D01*
X103686428Y-57131857D01*
X103722714Y-57059285D01*
X103759000Y-57023000D01*
X103831571Y-56986714D01*
X103976714Y-56986714D01*
X104049285Y-57023000D01*
X104412142Y-57494714D02*
X104412142Y-56732714D01*
X104702428Y-56732714D01*
X104775000Y-56769000D01*
X104811285Y-56805285D01*
X104847571Y-56877857D01*
X104847571Y-56986714D01*
X104811285Y-57059285D01*
X104775000Y-57095571D01*
X104702428Y-57131857D01*
X104412142Y-57131857D01*
X105464428Y-57458428D02*
X105391857Y-57494714D01*
X105246714Y-57494714D01*
X105174142Y-57458428D01*
X105137857Y-57385857D01*
X105137857Y-57095571D01*
X105174142Y-57023000D01*
X105246714Y-56986714D01*
X105391857Y-56986714D01*
X105464428Y-57023000D01*
X105500714Y-57095571D01*
X105500714Y-57168142D01*
X105137857Y-57240714D01*
X105718428Y-56986714D02*
X106008714Y-56986714D01*
X105827285Y-56732714D02*
X105827285Y-57385857D01*
X105863571Y-57458428D01*
X105936142Y-57494714D01*
X106008714Y-57494714D01*
D11*
G04 #@! TO.C,U3*
X151190000Y-44180000D02*
G75*
G02X151190000Y-42180000I0J1000000D01*
G01*
X151190000Y-42180000D02*
X151190000Y-40930000D01*
X151190000Y-40930000D02*
X140910000Y-40930000D01*
X140910000Y-40930000D02*
X140910000Y-45430000D01*
X140910000Y-45430000D02*
X151190000Y-45430000D01*
X151190000Y-45430000D02*
X151190000Y-44180000D01*
G04 #@! TO.C,R4*
X125060000Y-44410000D02*
X125060000Y-47030000D01*
X125060000Y-47030000D02*
X131480000Y-47030000D01*
X131480000Y-47030000D02*
X131480000Y-44410000D01*
X131480000Y-44410000D02*
X125060000Y-44410000D01*
X124170000Y-45720000D02*
X125060000Y-45720000D01*
X132370000Y-45720000D02*
X131480000Y-45720000D01*
G04 #@! TO.C,U2*
X120100000Y-51030000D02*
X120100000Y-27710000D01*
X113200000Y-53570000D02*
X87770000Y-53570000D01*
X120100000Y-27710000D02*
X87770000Y-27710000D01*
X85640000Y-29830000D02*
X85640000Y-51440000D01*
D12*
G36*
X93345000Y-54610000D02*
G01*
X94615000Y-54610000D01*
X93980000Y-53975000D01*
X93345000Y-54610000D01*
G37*
X93345000Y-54610000D02*
X94615000Y-54610000D01*
X93980000Y-53975000D01*
X93345000Y-54610000D01*
D11*
X113200000Y-53570000D02*
X113200000Y-51030000D01*
X113200000Y-51030000D02*
X120100000Y-51030000D01*
X87770000Y-53570000D02*
G75*
G02X85640000Y-51440000I0J2130000D01*
G01*
X85640000Y-29840000D02*
G75*
G02X87770000Y-27710000I2130000J0D01*
G01*
G04 #@! TO.C,J1*
X149920000Y-53280000D02*
X149920000Y-54610000D01*
X148590000Y-53280000D02*
X149920000Y-53280000D01*
X147320000Y-53280000D02*
X147320000Y-55940000D01*
X147320000Y-55940000D02*
X129480000Y-55940000D01*
X147320000Y-53280000D02*
X129480000Y-53280000D01*
X129480000Y-53280000D02*
X129480000Y-55940000D01*
G04 #@! TO.C,U1*
X126020000Y-38160000D02*
X127270000Y-38160000D01*
X126020000Y-27880000D02*
X126020000Y-38160000D01*
X130520000Y-27880000D02*
X126020000Y-27880000D01*
X130520000Y-38160000D02*
X130520000Y-27880000D01*
X129270000Y-38160000D02*
X130520000Y-38160000D01*
X127270000Y-38160000D02*
G75*
G02X129270000Y-38160000I1000000J0D01*
G01*
G04 #@! TO.C,D1*
X141100000Y-34080000D02*
X141100000Y-31960000D01*
X136870000Y-33020000D02*
X137640000Y-33020000D01*
X142530000Y-33020000D02*
X141760000Y-33020000D01*
X137640000Y-34080000D02*
X141760000Y-34080000D01*
X137640000Y-31960000D02*
X137640000Y-34080000D01*
X141760000Y-31960000D02*
X137640000Y-31960000D01*
X141760000Y-34080000D02*
X141760000Y-31960000D01*
G04 #@! TO.C,D2*
X141760000Y-30270000D02*
X141760000Y-28150000D01*
X141760000Y-28150000D02*
X137640000Y-28150000D01*
X137640000Y-28150000D02*
X137640000Y-30270000D01*
X137640000Y-30270000D02*
X141760000Y-30270000D01*
X142530000Y-29210000D02*
X141760000Y-29210000D01*
X136870000Y-29210000D02*
X137640000Y-29210000D01*
X141100000Y-30270000D02*
X141100000Y-28150000D01*
G04 #@! TO.C,J2*
X159960000Y-55940000D02*
X159960000Y-54610000D01*
X161290000Y-55940000D02*
X159960000Y-55940000D01*
X162560000Y-55940000D02*
X162560000Y-53280000D01*
X162560000Y-53280000D02*
X170240000Y-53280000D01*
X162560000Y-55940000D02*
X170240000Y-55940000D01*
X170240000Y-55940000D02*
X170240000Y-53280000D01*
G04 #@! TO.C,R1*
X156500000Y-33020000D02*
X155610000Y-33020000D01*
X148300000Y-33020000D02*
X149190000Y-33020000D01*
X155610000Y-31710000D02*
X149190000Y-31710000D01*
X155610000Y-34330000D02*
X155610000Y-31710000D01*
X149190000Y-34330000D02*
X155610000Y-34330000D01*
X149190000Y-31710000D02*
X149190000Y-34330000D01*
G04 #@! TO.C,R2*
X149190000Y-27900000D02*
X149190000Y-30520000D01*
X149190000Y-30520000D02*
X155610000Y-30520000D01*
X155610000Y-30520000D02*
X155610000Y-27900000D01*
X155610000Y-27900000D02*
X149190000Y-27900000D01*
X148300000Y-29210000D02*
X149190000Y-29210000D01*
X156500000Y-29210000D02*
X155610000Y-29210000D01*
G04 #@! TO.C,R3*
X132370000Y-41910000D02*
X131480000Y-41910000D01*
X124170000Y-41910000D02*
X125060000Y-41910000D01*
X131480000Y-40600000D02*
X125060000Y-40600000D01*
X131480000Y-43220000D02*
X131480000Y-40600000D01*
X125060000Y-43220000D02*
X131480000Y-43220000D01*
X125060000Y-40600000D02*
X125060000Y-43220000D01*
G04 #@! TO.C,J3*
X170240000Y-27880000D02*
X170240000Y-29210000D01*
X168910000Y-27880000D02*
X170240000Y-27880000D01*
X167640000Y-27880000D02*
X167640000Y-30540000D01*
X167640000Y-30540000D02*
X162500000Y-30540000D01*
X167640000Y-27880000D02*
X162500000Y-27880000D01*
X162500000Y-27880000D02*
X162500000Y-30540000D01*
G04 #@! TO.C,U3*
D12*
X151638095Y-44537380D02*
X151638095Y-45346904D01*
X151685714Y-45442142D01*
X151733333Y-45489761D01*
X151828571Y-45537380D01*
X152019047Y-45537380D01*
X152114285Y-45489761D01*
X152161904Y-45442142D01*
X152209523Y-45346904D01*
X152209523Y-44537380D01*
X152590476Y-44537380D02*
X153209523Y-44537380D01*
X152876190Y-44918333D01*
X153019047Y-44918333D01*
X153114285Y-44965952D01*
X153161904Y-45013571D01*
X153209523Y-45108809D01*
X153209523Y-45346904D01*
X153161904Y-45442142D01*
X153114285Y-45489761D01*
X153019047Y-45537380D01*
X152733333Y-45537380D01*
X152638095Y-45489761D01*
X152590476Y-45442142D01*
G04 #@! TO.C,R4*
X128103333Y-46172380D02*
X127770000Y-45696190D01*
X127531904Y-46172380D02*
X127531904Y-45172380D01*
X127912857Y-45172380D01*
X128008095Y-45220000D01*
X128055714Y-45267619D01*
X128103333Y-45362857D01*
X128103333Y-45505714D01*
X128055714Y-45600952D01*
X128008095Y-45648571D01*
X127912857Y-45696190D01*
X127531904Y-45696190D01*
X128960476Y-45505714D02*
X128960476Y-46172380D01*
X128722380Y-45124761D02*
X128484285Y-45839047D01*
X129103333Y-45839047D01*
G04 #@! TO.C,U2*
X95972380Y-40131904D02*
X96781904Y-40131904D01*
X96877142Y-40084285D01*
X96924761Y-40036666D01*
X96972380Y-39941428D01*
X96972380Y-39750952D01*
X96924761Y-39655714D01*
X96877142Y-39608095D01*
X96781904Y-39560476D01*
X95972380Y-39560476D01*
X96067619Y-39131904D02*
X96020000Y-39084285D01*
X95972380Y-38989047D01*
X95972380Y-38750952D01*
X96020000Y-38655714D01*
X96067619Y-38608095D01*
X96162857Y-38560476D01*
X96258095Y-38560476D01*
X96400952Y-38608095D01*
X96972380Y-39179523D01*
X96972380Y-38560476D01*
G04 #@! TO.C,J1*
X127936666Y-54062380D02*
X127936666Y-54776666D01*
X127889047Y-54919523D01*
X127793809Y-55014761D01*
X127650952Y-55062380D01*
X127555714Y-55062380D01*
X128936666Y-55062380D02*
X128365238Y-55062380D01*
X128650952Y-55062380D02*
X128650952Y-54062380D01*
X128555714Y-54205238D01*
X128460476Y-54300476D01*
X128365238Y-54348095D01*
G04 #@! TO.C,U1*
X127508095Y-32472380D02*
X127508095Y-33281904D01*
X127555714Y-33377142D01*
X127603333Y-33424761D01*
X127698571Y-33472380D01*
X127889047Y-33472380D01*
X127984285Y-33424761D01*
X128031904Y-33377142D01*
X128079523Y-33281904D01*
X128079523Y-32472380D01*
X129079523Y-33472380D02*
X128508095Y-33472380D01*
X128793809Y-33472380D02*
X128793809Y-32472380D01*
X128698571Y-32615238D01*
X128603333Y-32710476D01*
X128508095Y-32758095D01*
G04 #@! TO.C,D1*
X144676904Y-31567380D02*
X144676904Y-30567380D01*
X144915000Y-30567380D01*
X145057857Y-30615000D01*
X145153095Y-30710238D01*
X145200714Y-30805476D01*
X145248333Y-30995952D01*
X145248333Y-31138809D01*
X145200714Y-31329285D01*
X145153095Y-31424523D01*
X145057857Y-31519761D01*
X144915000Y-31567380D01*
X144676904Y-31567380D01*
X146200714Y-31567380D02*
X145629285Y-31567380D01*
X145915000Y-31567380D02*
X145915000Y-30567380D01*
X145819761Y-30710238D01*
X145724523Y-30805476D01*
X145629285Y-30853095D01*
G04 #@! TO.C,D2*
X144676904Y-27757380D02*
X144676904Y-26757380D01*
X144915000Y-26757380D01*
X145057857Y-26805000D01*
X145153095Y-26900238D01*
X145200714Y-26995476D01*
X145248333Y-27185952D01*
X145248333Y-27328809D01*
X145200714Y-27519285D01*
X145153095Y-27614523D01*
X145057857Y-27709761D01*
X144915000Y-27757380D01*
X144676904Y-27757380D01*
X145629285Y-26852619D02*
X145676904Y-26805000D01*
X145772142Y-26757380D01*
X146010238Y-26757380D01*
X146105476Y-26805000D01*
X146153095Y-26852619D01*
X146200714Y-26947857D01*
X146200714Y-27043095D01*
X146153095Y-27185952D01*
X145581666Y-27757380D01*
X146200714Y-27757380D01*
G04 #@! TO.C,J2*
X171116666Y-54062380D02*
X171116666Y-54776666D01*
X171069047Y-54919523D01*
X170973809Y-55014761D01*
X170830952Y-55062380D01*
X170735714Y-55062380D01*
X171545238Y-54157619D02*
X171592857Y-54110000D01*
X171688095Y-54062380D01*
X171926190Y-54062380D01*
X172021428Y-54110000D01*
X172069047Y-54157619D01*
X172116666Y-54252857D01*
X172116666Y-54348095D01*
X172069047Y-54490952D01*
X171497619Y-55062380D01*
X172116666Y-55062380D01*
G04 #@! TO.C,R1*
X152233333Y-33472380D02*
X151900000Y-32996190D01*
X151661904Y-33472380D02*
X151661904Y-32472380D01*
X152042857Y-32472380D01*
X152138095Y-32520000D01*
X152185714Y-32567619D01*
X152233333Y-32662857D01*
X152233333Y-32805714D01*
X152185714Y-32900952D01*
X152138095Y-32948571D01*
X152042857Y-32996190D01*
X151661904Y-32996190D01*
X153185714Y-33472380D02*
X152614285Y-33472380D01*
X152900000Y-33472380D02*
X152900000Y-32472380D01*
X152804761Y-32615238D01*
X152709523Y-32710476D01*
X152614285Y-32758095D01*
G04 #@! TO.C,R2*
X152233333Y-29662380D02*
X151900000Y-29186190D01*
X151661904Y-29662380D02*
X151661904Y-28662380D01*
X152042857Y-28662380D01*
X152138095Y-28710000D01*
X152185714Y-28757619D01*
X152233333Y-28852857D01*
X152233333Y-28995714D01*
X152185714Y-29090952D01*
X152138095Y-29138571D01*
X152042857Y-29186190D01*
X151661904Y-29186190D01*
X152614285Y-28757619D02*
X152661904Y-28710000D01*
X152757142Y-28662380D01*
X152995238Y-28662380D01*
X153090476Y-28710000D01*
X153138095Y-28757619D01*
X153185714Y-28852857D01*
X153185714Y-28948095D01*
X153138095Y-29090952D01*
X152566666Y-29662380D01*
X153185714Y-29662380D01*
G04 #@! TO.C,R3*
X128103333Y-42362380D02*
X127770000Y-41886190D01*
X127531904Y-42362380D02*
X127531904Y-41362380D01*
X127912857Y-41362380D01*
X128008095Y-41410000D01*
X128055714Y-41457619D01*
X128103333Y-41552857D01*
X128103333Y-41695714D01*
X128055714Y-41790952D01*
X128008095Y-41838571D01*
X127912857Y-41886190D01*
X127531904Y-41886190D01*
X128436666Y-41362380D02*
X129055714Y-41362380D01*
X128722380Y-41743333D01*
X128865238Y-41743333D01*
X128960476Y-41790952D01*
X129008095Y-41838571D01*
X129055714Y-41933809D01*
X129055714Y-42171904D01*
X129008095Y-42267142D01*
X128960476Y-42314761D01*
X128865238Y-42362380D01*
X128579523Y-42362380D01*
X128484285Y-42314761D01*
X128436666Y-42267142D01*
G04 #@! TO.C,J3*
X160956666Y-28662380D02*
X160956666Y-29376666D01*
X160909047Y-29519523D01*
X160813809Y-29614761D01*
X160670952Y-29662380D01*
X160575714Y-29662380D01*
X161337619Y-28662380D02*
X161956666Y-28662380D01*
X161623333Y-29043333D01*
X161766190Y-29043333D01*
X161861428Y-29090952D01*
X161909047Y-29138571D01*
X161956666Y-29233809D01*
X161956666Y-29471904D01*
X161909047Y-29567142D01*
X161861428Y-29614761D01*
X161766190Y-29662380D01*
X161480476Y-29662380D01*
X161385238Y-29614761D01*
X161337619Y-29567142D01*
G04 #@! TD*
M02*
