M48
; DRILL file {KiCad (5.1.0)-1} date 12.06.2019 07:35:09
; FORMAT={-:-/ absolute / inch / decimal}
; #@! TF.CreationDate,2019-06-12T07:35:09+02:00
; #@! TF.GenerationSoftware,Kicad,Pcbnew,(5.1.0)-1
; #@! TF.FileFunction,Plated,1,2,PTH
FMAT,2
INCH
T1C0.0157
T2C0.0315
T3C0.0394
%
G90
G05
T1
X6.05Y-1.65
X6.45Y-1.65
T2
X5.35Y-1.3
X5.65Y-1.3
X5.35Y-1.15
X5.65Y-1.15
X4.85Y-1.65
X5.25Y-1.65
X5.8Y-1.3
X6.2Y-1.3
X4.85Y-1.8
X5.25Y-1.8
X5.8Y-1.15
X6.2Y-1.15
X4.9Y-1.15
X4.9Y-1.25
X4.9Y-1.35
X4.9Y-1.45
X5.2Y-1.15
X5.2Y-1.25
X5.2Y-1.35
X5.2Y-1.45
X5.6Y-1.55
X5.6Y-1.85
X5.7Y-1.55
X5.7Y-1.85
X5.8Y-1.55
X5.8Y-1.85
X5.9Y-1.55
X5.9Y-1.85
T3
X6.45Y-1.15
X6.55Y-1.15
X6.65Y-1.15
X3.7Y-1.15
X3.7Y-2.05
X3.8Y-1.15
X3.8Y-2.05
X3.9Y-1.15
X3.9Y-2.05
X4.0Y-1.15
X4.0Y-2.05
X4.1Y-1.15
X4.1Y-2.05
X4.2Y-1.15
X4.2Y-2.05
X4.3Y-1.15
X4.3Y-2.05
X4.4Y-1.15
X4.4Y-2.05
X6.35Y-2.15
X6.45Y-2.15
X6.55Y-2.15
X6.65Y-2.15
X5.15Y-2.15
X5.25Y-2.15
X5.35Y-2.15
X5.45Y-2.15
X5.55Y-2.15
X5.65Y-2.15
X5.75Y-2.15
X5.85Y-2.15
T0
M30
