G04 #@! TF.GenerationSoftware,KiCad,Pcbnew,(5.1.0)-1*
G04 #@! TF.CreationDate,2019-06-12T07:31:52+02:00*
G04 #@! TF.ProjectId,SRCtrl_V3,53524374-726c-45f5-9633-2e6b69636164,rev?*
G04 #@! TF.SameCoordinates,Original*
G04 #@! TF.FileFunction,Copper,L2,Bot*
G04 #@! TF.FilePolarity,Positive*
%FSLAX46Y46*%
G04 Gerber Fmt 4.6, Leading zero omitted, Abs format (unit mm)*
G04 Created by KiCad (PCBNEW (5.1.0)-1) date 2019-06-12 07:31:52*
%MOMM*%
%LPD*%
G04 APERTURE LIST*
G04 #@! TA.AperFunction,ComponentPad*
%ADD10R,1.600000X2.400000*%
G04 #@! TD*
G04 #@! TA.AperFunction,ComponentPad*
%ADD11O,1.600000X2.400000*%
G04 #@! TD*
G04 #@! TA.AperFunction,ComponentPad*
%ADD12C,1.600000*%
G04 #@! TD*
G04 #@! TA.AperFunction,ComponentPad*
%ADD13O,1.600000X1.600000*%
G04 #@! TD*
G04 #@! TA.AperFunction,ComponentPad*
%ADD14O,1.600000X2.000000*%
G04 #@! TD*
G04 #@! TA.AperFunction,ComponentPad*
%ADD15R,2.000000X2.000000*%
G04 #@! TD*
G04 #@! TA.AperFunction,ComponentPad*
%ADD16O,1.700000X1.700000*%
G04 #@! TD*
G04 #@! TA.AperFunction,ComponentPad*
%ADD17R,1.700000X1.700000*%
G04 #@! TD*
G04 #@! TA.AperFunction,ComponentPad*
%ADD18O,2.400000X1.600000*%
G04 #@! TD*
G04 #@! TA.AperFunction,ComponentPad*
%ADD19R,2.400000X1.600000*%
G04 #@! TD*
G04 #@! TA.AperFunction,ComponentPad*
%ADD20R,1.600000X1.600000*%
G04 #@! TD*
G04 #@! TA.AperFunction,ViaPad*
%ADD21C,0.800000*%
G04 #@! TD*
G04 #@! TA.AperFunction,Conductor*
%ADD22C,1.270000*%
G04 #@! TD*
G04 #@! TA.AperFunction,Conductor*
%ADD23C,1.524000*%
G04 #@! TD*
G04 #@! TA.AperFunction,Conductor*
%ADD24C,2.540000*%
G04 #@! TD*
G04 #@! TA.AperFunction,Conductor*
%ADD25C,0.762000*%
G04 #@! TD*
G04 #@! TA.AperFunction,Conductor*
%ADD26C,0.254000*%
G04 #@! TD*
G04 APERTURE END LIST*
D10*
G04 #@! TO.P,U3,1*
G04 #@! TO.N,VCC*
X149860000Y-39370000D03*
D11*
G04 #@! TO.P,U3,5*
G04 #@! TO.N,/TasterOut2*
X142240000Y-46990000D03*
G04 #@! TO.P,U3,2*
G04 #@! TO.N,Net-(R3-Pad2)*
X147320000Y-39370000D03*
G04 #@! TO.P,U3,6*
G04 #@! TO.N,/TasterOutCom*
X144780000Y-46990000D03*
G04 #@! TO.P,U3,3*
G04 #@! TO.N,Net-(R4-Pad2)*
X144780000Y-39370000D03*
G04 #@! TO.P,U3,7*
G04 #@! TO.N,/TasterOutCom*
X147320000Y-46990000D03*
G04 #@! TO.P,U3,4*
G04 #@! TO.N,VCC*
X142240000Y-39370000D03*
G04 #@! TO.P,U3,8*
G04 #@! TO.N,/TasterOut1*
X149860000Y-46990000D03*
G04 #@! TD*
D12*
G04 #@! TO.P,R4,1*
G04 #@! TO.N,/Taster2*
X123190000Y-45720000D03*
D13*
G04 #@! TO.P,R4,2*
G04 #@! TO.N,Net-(R4-Pad2)*
X133350000Y-45720000D03*
G04 #@! TD*
D14*
G04 #@! TO.P,U2,2*
G04 #@! TO.N,N/C*
X96520000Y-52070000D03*
D15*
G04 #@! TO.P,U2,1*
X93980000Y-52070000D03*
D14*
G04 #@! TO.P,U2,3*
X99060000Y-52070000D03*
G04 #@! TO.P,U2,4*
G04 #@! TO.N,/Taster1*
X101600000Y-52070000D03*
G04 #@! TO.P,U2,5*
G04 #@! TO.N,/Taster2*
X104140000Y-52070000D03*
G04 #@! TO.P,U2,6*
G04 #@! TO.N,/HallSensorIn*
X106680000Y-52070000D03*
G04 #@! TO.P,U2,7*
G04 #@! TO.N,N/C*
X109220000Y-52070000D03*
G04 #@! TO.P,U2,8*
G04 #@! TO.N,VCC*
X111760000Y-52070000D03*
G04 #@! TO.P,U2,9*
G04 #@! TO.N,N/C*
X111760000Y-29210000D03*
G04 #@! TO.P,U2,10*
G04 #@! TO.N,GND*
X109220000Y-29210000D03*
G04 #@! TO.P,U2,11*
G04 #@! TO.N,N/C*
X106680000Y-29210000D03*
G04 #@! TO.P,U2,12*
G04 #@! TO.N,/DQ*
X104140000Y-29210000D03*
G04 #@! TO.P,U2,13*
G04 #@! TO.N,/Motor2*
X101600000Y-29210000D03*
G04 #@! TO.P,U2,14*
G04 #@! TO.N,/Motor1*
X99060000Y-29210000D03*
G04 #@! TO.P,U2,15*
G04 #@! TO.N,N/C*
X96520000Y-29210000D03*
G04 #@! TO.P,U2,16*
X93980000Y-29210000D03*
G04 #@! TD*
D16*
G04 #@! TO.P,J1,8*
G04 #@! TO.N,GND*
X130810000Y-54610000D03*
G04 #@! TO.P,J1,7*
G04 #@! TO.N,/HallSensorIn*
X133350000Y-54610000D03*
G04 #@! TO.P,J1,6*
G04 #@! TO.N,/TasterOut2*
X135890000Y-54610000D03*
G04 #@! TO.P,J1,5*
G04 #@! TO.N,/TasterOutCom*
X138430000Y-54610000D03*
G04 #@! TO.P,J1,4*
G04 #@! TO.N,/TasterOut1*
X140970000Y-54610000D03*
G04 #@! TO.P,J1,3*
G04 #@! TO.N,/MotorIn1*
X143510000Y-54610000D03*
G04 #@! TO.P,J1,2*
G04 #@! TO.N,/MotorIn2*
X146050000Y-54610000D03*
D17*
G04 #@! TO.P,J1,1*
G04 #@! TO.N,+24V*
X148590000Y-54610000D03*
G04 #@! TD*
D18*
G04 #@! TO.P,U1,8*
G04 #@! TO.N,GND*
X124460000Y-36830000D03*
G04 #@! TO.P,U1,4*
G04 #@! TO.N,Net-(D2-Pad1)*
X132080000Y-29210000D03*
G04 #@! TO.P,U1,7*
G04 #@! TO.N,/Motor1*
X124460000Y-34290000D03*
G04 #@! TO.P,U1,3*
G04 #@! TO.N,Net-(D1-Pad2)*
X132080000Y-31750000D03*
G04 #@! TO.P,U1,6*
G04 #@! TO.N,/Motor2*
X124460000Y-31750000D03*
G04 #@! TO.P,U1,2*
G04 #@! TO.N,Net-(D1-Pad2)*
X132080000Y-34290000D03*
G04 #@! TO.P,U1,5*
G04 #@! TO.N,GND*
X124460000Y-29210000D03*
D19*
G04 #@! TO.P,U1,1*
G04 #@! TO.N,Net-(D1-Pad1)*
X132080000Y-36830000D03*
G04 #@! TD*
D13*
G04 #@! TO.P,D1,2*
G04 #@! TO.N,Net-(D1-Pad2)*
X135890000Y-33020000D03*
D20*
G04 #@! TO.P,D1,1*
G04 #@! TO.N,Net-(D1-Pad1)*
X143510000Y-33020000D03*
G04 #@! TD*
G04 #@! TO.P,D2,1*
G04 #@! TO.N,Net-(D2-Pad1)*
X143510000Y-29210000D03*
D13*
G04 #@! TO.P,D2,2*
G04 #@! TO.N,Net-(D1-Pad2)*
X135890000Y-29210000D03*
G04 #@! TD*
D16*
G04 #@! TO.P,J2,4*
G04 #@! TO.N,VCC*
X168910000Y-54610000D03*
G04 #@! TO.P,J2,3*
G04 #@! TO.N,GND*
X166370000Y-54610000D03*
G04 #@! TO.P,J2,2*
G04 #@! TO.N,+24V*
X163830000Y-54610000D03*
D17*
G04 #@! TO.P,J2,1*
G04 #@! TO.N,N/C*
X161290000Y-54610000D03*
G04 #@! TD*
D13*
G04 #@! TO.P,R1,2*
G04 #@! TO.N,/MotorIn1*
X157480000Y-33020000D03*
D12*
G04 #@! TO.P,R1,1*
G04 #@! TO.N,Net-(D1-Pad1)*
X147320000Y-33020000D03*
G04 #@! TD*
G04 #@! TO.P,R2,1*
G04 #@! TO.N,Net-(D2-Pad1)*
X147320000Y-29210000D03*
D13*
G04 #@! TO.P,R2,2*
G04 #@! TO.N,/MotorIn2*
X157480000Y-29210000D03*
G04 #@! TD*
G04 #@! TO.P,R3,2*
G04 #@! TO.N,Net-(R3-Pad2)*
X133350000Y-41910000D03*
D12*
G04 #@! TO.P,R3,1*
G04 #@! TO.N,/Taster1*
X123190000Y-41910000D03*
G04 #@! TD*
D16*
G04 #@! TO.P,J3,3*
G04 #@! TO.N,VCC*
X163830000Y-29210000D03*
G04 #@! TO.P,J3,2*
G04 #@! TO.N,/DQ*
X166370000Y-29210000D03*
D17*
G04 #@! TO.P,J3,1*
G04 #@! TO.N,GND*
X168910000Y-29210000D03*
G04 #@! TD*
D21*
G04 #@! TO.N,VCC*
X153670000Y-41910000D03*
X163830000Y-41910000D03*
G04 #@! TD*
D22*
G04 #@! TO.N,GND*
X109220000Y-29210000D02*
X109220000Y-30480000D01*
X109220000Y-30480000D02*
X110490000Y-31750000D01*
X110490000Y-31750000D02*
X115570000Y-31750000D01*
X115570000Y-31750000D02*
X118110000Y-29210000D01*
X118110000Y-29210000D02*
X124460000Y-29210000D01*
D23*
X127184000Y-36830000D02*
X124460000Y-36830000D01*
X128270000Y-35744000D02*
X127184000Y-36830000D01*
X128270000Y-30480000D02*
X128270000Y-35744000D01*
X124460000Y-29210000D02*
X127000000Y-29210000D01*
X127000000Y-29210000D02*
X128270000Y-30480000D01*
X128270000Y-53340000D02*
X129540000Y-54610000D01*
X129540000Y-54610000D02*
X130810000Y-54610000D01*
X168910000Y-29210000D02*
X168910000Y-45720000D01*
X168910000Y-45720000D02*
X166370000Y-48260000D01*
X128270000Y-49530000D02*
X166370000Y-49530000D01*
X166370000Y-49530000D02*
X166370000Y-54610000D01*
X166370000Y-48260000D02*
X166370000Y-49530000D01*
X128270000Y-49530000D02*
X128270000Y-53340000D01*
X128270000Y-35744000D02*
X128270000Y-49530000D01*
D24*
G04 #@! TO.N,VCC*
X153670000Y-41910000D02*
X163830000Y-41910000D01*
D25*
G04 #@! TO.N,/DQ*
X166370000Y-29210000D02*
X166370000Y-27940000D01*
X166370000Y-27940000D02*
X165100000Y-26670000D01*
X165100000Y-26670000D02*
X105410000Y-26670000D01*
X105410000Y-26670000D02*
X104140000Y-27940000D01*
X104140000Y-27940000D02*
X104140000Y-29210000D01*
G04 #@! TD*
D26*
G04 #@! TO.N,GND*
G36*
X172035001Y-57735000D02*
G01*
X97917000Y-57735000D01*
X97917000Y-54966891D01*
X129368519Y-54966891D01*
X129465843Y-55241252D01*
X129614822Y-55491355D01*
X129809731Y-55707588D01*
X130043080Y-55881641D01*
X130305901Y-56006825D01*
X130453110Y-56051476D01*
X130683000Y-55930155D01*
X130683000Y-54737000D01*
X129489186Y-54737000D01*
X129368519Y-54966891D01*
X97917000Y-54966891D01*
X97917000Y-54253109D01*
X129368519Y-54253109D01*
X129489186Y-54483000D01*
X130683000Y-54483000D01*
X130683000Y-53289845D01*
X130937000Y-53289845D01*
X130937000Y-54483000D01*
X130957000Y-54483000D01*
X130957000Y-54737000D01*
X130937000Y-54737000D01*
X130937000Y-55930155D01*
X131166890Y-56051476D01*
X131314099Y-56006825D01*
X131576920Y-55881641D01*
X131810269Y-55707588D01*
X132005178Y-55491355D01*
X132074799Y-55374477D01*
X132109294Y-55439014D01*
X132294866Y-55665134D01*
X132520986Y-55850706D01*
X132778966Y-55988599D01*
X133058889Y-56073513D01*
X133277050Y-56095000D01*
X133422950Y-56095000D01*
X133641111Y-56073513D01*
X133921034Y-55988599D01*
X134179014Y-55850706D01*
X134405134Y-55665134D01*
X134590706Y-55439014D01*
X134620000Y-55384209D01*
X134649294Y-55439014D01*
X134834866Y-55665134D01*
X135060986Y-55850706D01*
X135318966Y-55988599D01*
X135598889Y-56073513D01*
X135817050Y-56095000D01*
X135962950Y-56095000D01*
X136181111Y-56073513D01*
X136461034Y-55988599D01*
X136719014Y-55850706D01*
X136945134Y-55665134D01*
X137130706Y-55439014D01*
X137160000Y-55384209D01*
X137189294Y-55439014D01*
X137374866Y-55665134D01*
X137600986Y-55850706D01*
X137858966Y-55988599D01*
X138138889Y-56073513D01*
X138357050Y-56095000D01*
X138502950Y-56095000D01*
X138721111Y-56073513D01*
X139001034Y-55988599D01*
X139259014Y-55850706D01*
X139485134Y-55665134D01*
X139670706Y-55439014D01*
X139700000Y-55384209D01*
X139729294Y-55439014D01*
X139914866Y-55665134D01*
X140140986Y-55850706D01*
X140398966Y-55988599D01*
X140678889Y-56073513D01*
X140897050Y-56095000D01*
X141042950Y-56095000D01*
X141261111Y-56073513D01*
X141541034Y-55988599D01*
X141799014Y-55850706D01*
X142025134Y-55665134D01*
X142210706Y-55439014D01*
X142240000Y-55384209D01*
X142269294Y-55439014D01*
X142454866Y-55665134D01*
X142680986Y-55850706D01*
X142938966Y-55988599D01*
X143218889Y-56073513D01*
X143437050Y-56095000D01*
X143582950Y-56095000D01*
X143801111Y-56073513D01*
X144081034Y-55988599D01*
X144339014Y-55850706D01*
X144565134Y-55665134D01*
X144750706Y-55439014D01*
X144780000Y-55384209D01*
X144809294Y-55439014D01*
X144994866Y-55665134D01*
X145220986Y-55850706D01*
X145478966Y-55988599D01*
X145758889Y-56073513D01*
X145977050Y-56095000D01*
X146122950Y-56095000D01*
X146341111Y-56073513D01*
X146621034Y-55988599D01*
X146879014Y-55850706D01*
X147105134Y-55665134D01*
X147129607Y-55635313D01*
X147150498Y-55704180D01*
X147209463Y-55814494D01*
X147288815Y-55911185D01*
X147385506Y-55990537D01*
X147495820Y-56049502D01*
X147615518Y-56085812D01*
X147740000Y-56098072D01*
X149440000Y-56098072D01*
X149564482Y-56085812D01*
X149684180Y-56049502D01*
X149794494Y-55990537D01*
X149891185Y-55911185D01*
X149970537Y-55814494D01*
X150029502Y-55704180D01*
X150065812Y-55584482D01*
X150078072Y-55460000D01*
X150078072Y-53760000D01*
X159801928Y-53760000D01*
X159801928Y-55460000D01*
X159814188Y-55584482D01*
X159850498Y-55704180D01*
X159909463Y-55814494D01*
X159988815Y-55911185D01*
X160085506Y-55990537D01*
X160195820Y-56049502D01*
X160315518Y-56085812D01*
X160440000Y-56098072D01*
X162140000Y-56098072D01*
X162264482Y-56085812D01*
X162384180Y-56049502D01*
X162494494Y-55990537D01*
X162591185Y-55911185D01*
X162670537Y-55814494D01*
X162729502Y-55704180D01*
X162750393Y-55635313D01*
X162774866Y-55665134D01*
X163000986Y-55850706D01*
X163258966Y-55988599D01*
X163538889Y-56073513D01*
X163757050Y-56095000D01*
X163902950Y-56095000D01*
X164121111Y-56073513D01*
X164401034Y-55988599D01*
X164659014Y-55850706D01*
X164885134Y-55665134D01*
X165070706Y-55439014D01*
X165105201Y-55374477D01*
X165174822Y-55491355D01*
X165369731Y-55707588D01*
X165603080Y-55881641D01*
X165865901Y-56006825D01*
X166013110Y-56051476D01*
X166243000Y-55930155D01*
X166243000Y-54737000D01*
X166223000Y-54737000D01*
X166223000Y-54483000D01*
X166243000Y-54483000D01*
X166243000Y-53289845D01*
X166497000Y-53289845D01*
X166497000Y-54483000D01*
X166517000Y-54483000D01*
X166517000Y-54737000D01*
X166497000Y-54737000D01*
X166497000Y-55930155D01*
X166726890Y-56051476D01*
X166874099Y-56006825D01*
X167136920Y-55881641D01*
X167370269Y-55707588D01*
X167565178Y-55491355D01*
X167634799Y-55374477D01*
X167669294Y-55439014D01*
X167854866Y-55665134D01*
X168080986Y-55850706D01*
X168338966Y-55988599D01*
X168618889Y-56073513D01*
X168837050Y-56095000D01*
X168982950Y-56095000D01*
X169201111Y-56073513D01*
X169481034Y-55988599D01*
X169739014Y-55850706D01*
X169965134Y-55665134D01*
X170150706Y-55439014D01*
X170288599Y-55181034D01*
X170373513Y-54901111D01*
X170402185Y-54610000D01*
X170373513Y-54318889D01*
X170288599Y-54038966D01*
X170150706Y-53780986D01*
X169965134Y-53554866D01*
X169739014Y-53369294D01*
X169481034Y-53231401D01*
X169201111Y-53146487D01*
X168982950Y-53125000D01*
X168837050Y-53125000D01*
X168618889Y-53146487D01*
X168338966Y-53231401D01*
X168080986Y-53369294D01*
X167854866Y-53554866D01*
X167669294Y-53780986D01*
X167634799Y-53845523D01*
X167565178Y-53728645D01*
X167370269Y-53512412D01*
X167136920Y-53338359D01*
X166874099Y-53213175D01*
X166726890Y-53168524D01*
X166497000Y-53289845D01*
X166243000Y-53289845D01*
X166013110Y-53168524D01*
X165865901Y-53213175D01*
X165603080Y-53338359D01*
X165369731Y-53512412D01*
X165174822Y-53728645D01*
X165105201Y-53845523D01*
X165070706Y-53780986D01*
X164885134Y-53554866D01*
X164659014Y-53369294D01*
X164401034Y-53231401D01*
X164121111Y-53146487D01*
X163902950Y-53125000D01*
X163757050Y-53125000D01*
X163538889Y-53146487D01*
X163258966Y-53231401D01*
X163000986Y-53369294D01*
X162774866Y-53554866D01*
X162750393Y-53584687D01*
X162729502Y-53515820D01*
X162670537Y-53405506D01*
X162591185Y-53308815D01*
X162494494Y-53229463D01*
X162384180Y-53170498D01*
X162264482Y-53134188D01*
X162140000Y-53121928D01*
X160440000Y-53121928D01*
X160315518Y-53134188D01*
X160195820Y-53170498D01*
X160085506Y-53229463D01*
X159988815Y-53308815D01*
X159909463Y-53405506D01*
X159850498Y-53515820D01*
X159814188Y-53635518D01*
X159801928Y-53760000D01*
X150078072Y-53760000D01*
X150065812Y-53635518D01*
X150029502Y-53515820D01*
X149970537Y-53405506D01*
X149891185Y-53308815D01*
X149794494Y-53229463D01*
X149684180Y-53170498D01*
X149564482Y-53134188D01*
X149440000Y-53121928D01*
X147740000Y-53121928D01*
X147615518Y-53134188D01*
X147495820Y-53170498D01*
X147385506Y-53229463D01*
X147288815Y-53308815D01*
X147209463Y-53405506D01*
X147150498Y-53515820D01*
X147129607Y-53584687D01*
X147105134Y-53554866D01*
X146879014Y-53369294D01*
X146621034Y-53231401D01*
X146341111Y-53146487D01*
X146122950Y-53125000D01*
X145977050Y-53125000D01*
X145758889Y-53146487D01*
X145478966Y-53231401D01*
X145220986Y-53369294D01*
X144994866Y-53554866D01*
X144809294Y-53780986D01*
X144780000Y-53835791D01*
X144750706Y-53780986D01*
X144565134Y-53554866D01*
X144339014Y-53369294D01*
X144081034Y-53231401D01*
X143801111Y-53146487D01*
X143582950Y-53125000D01*
X143437050Y-53125000D01*
X143218889Y-53146487D01*
X142938966Y-53231401D01*
X142680986Y-53369294D01*
X142454866Y-53554866D01*
X142269294Y-53780986D01*
X142240000Y-53835791D01*
X142210706Y-53780986D01*
X142025134Y-53554866D01*
X141799014Y-53369294D01*
X141541034Y-53231401D01*
X141261111Y-53146487D01*
X141042950Y-53125000D01*
X140897050Y-53125000D01*
X140678889Y-53146487D01*
X140398966Y-53231401D01*
X140140986Y-53369294D01*
X139914866Y-53554866D01*
X139729294Y-53780986D01*
X139700000Y-53835791D01*
X139670706Y-53780986D01*
X139485134Y-53554866D01*
X139259014Y-53369294D01*
X139001034Y-53231401D01*
X138721111Y-53146487D01*
X138502950Y-53125000D01*
X138357050Y-53125000D01*
X138138889Y-53146487D01*
X137858966Y-53231401D01*
X137600986Y-53369294D01*
X137374866Y-53554866D01*
X137189294Y-53780986D01*
X137160000Y-53835791D01*
X137130706Y-53780986D01*
X136945134Y-53554866D01*
X136719014Y-53369294D01*
X136461034Y-53231401D01*
X136181111Y-53146487D01*
X135962950Y-53125000D01*
X135817050Y-53125000D01*
X135598889Y-53146487D01*
X135318966Y-53231401D01*
X135060986Y-53369294D01*
X134834866Y-53554866D01*
X134649294Y-53780986D01*
X134620000Y-53835791D01*
X134590706Y-53780986D01*
X134405134Y-53554866D01*
X134179014Y-53369294D01*
X133921034Y-53231401D01*
X133641111Y-53146487D01*
X133422950Y-53125000D01*
X133277050Y-53125000D01*
X133058889Y-53146487D01*
X132778966Y-53231401D01*
X132520986Y-53369294D01*
X132294866Y-53554866D01*
X132109294Y-53780986D01*
X132074799Y-53845523D01*
X132005178Y-53728645D01*
X131810269Y-53512412D01*
X131576920Y-53338359D01*
X131314099Y-53213175D01*
X131166890Y-53168524D01*
X130937000Y-53289845D01*
X130683000Y-53289845D01*
X130453110Y-53168524D01*
X130305901Y-53213175D01*
X130043080Y-53338359D01*
X129809731Y-53512412D01*
X129614822Y-53728645D01*
X129465843Y-53978748D01*
X129368519Y-54253109D01*
X97917000Y-54253109D01*
X97917000Y-53139254D01*
X98040393Y-53289608D01*
X98258900Y-53468932D01*
X98508193Y-53602182D01*
X98778692Y-53684236D01*
X99060000Y-53711943D01*
X99341309Y-53684236D01*
X99611808Y-53602182D01*
X99861101Y-53468932D01*
X100079608Y-53289608D01*
X100258932Y-53071101D01*
X100330000Y-52938142D01*
X100401068Y-53071101D01*
X100580393Y-53289608D01*
X100798900Y-53468932D01*
X101048193Y-53602182D01*
X101318692Y-53684236D01*
X101600000Y-53711943D01*
X101881309Y-53684236D01*
X102151808Y-53602182D01*
X102401101Y-53468932D01*
X102619608Y-53289608D01*
X102798932Y-53071101D01*
X102870000Y-52938142D01*
X102941068Y-53071101D01*
X103120393Y-53289608D01*
X103338900Y-53468932D01*
X103588193Y-53602182D01*
X103858692Y-53684236D01*
X104140000Y-53711943D01*
X104421309Y-53684236D01*
X104691808Y-53602182D01*
X104941101Y-53468932D01*
X105159608Y-53289608D01*
X105338932Y-53071101D01*
X105410000Y-52938142D01*
X105481068Y-53071101D01*
X105660393Y-53289608D01*
X105878900Y-53468932D01*
X106128193Y-53602182D01*
X106398692Y-53684236D01*
X106680000Y-53711943D01*
X106961309Y-53684236D01*
X107231808Y-53602182D01*
X107481101Y-53468932D01*
X107699608Y-53289608D01*
X107878932Y-53071101D01*
X107950000Y-52938142D01*
X108021068Y-53071101D01*
X108200393Y-53289608D01*
X108418900Y-53468932D01*
X108668193Y-53602182D01*
X108938692Y-53684236D01*
X109220000Y-53711943D01*
X109501309Y-53684236D01*
X109771808Y-53602182D01*
X110021101Y-53468932D01*
X110239608Y-53289608D01*
X110418932Y-53071101D01*
X110490000Y-52938142D01*
X110561068Y-53071101D01*
X110740393Y-53289608D01*
X110958900Y-53468932D01*
X111208193Y-53602182D01*
X111478692Y-53684236D01*
X111760000Y-53711943D01*
X112041309Y-53684236D01*
X112311808Y-53602182D01*
X112561101Y-53468932D01*
X112779608Y-53289608D01*
X112958932Y-53071101D01*
X113092182Y-52821807D01*
X113174236Y-52551308D01*
X113195000Y-52340491D01*
X113195000Y-51799508D01*
X113174236Y-51588691D01*
X113092182Y-51318192D01*
X112958932Y-51068899D01*
X112779607Y-50850392D01*
X112561100Y-50671068D01*
X112311807Y-50537818D01*
X112041308Y-50455764D01*
X111760000Y-50428057D01*
X111478691Y-50455764D01*
X111208192Y-50537818D01*
X110958899Y-50671068D01*
X110740392Y-50850393D01*
X110561068Y-51068900D01*
X110490000Y-51201858D01*
X110418932Y-51068899D01*
X110239607Y-50850392D01*
X110021100Y-50671068D01*
X109771807Y-50537818D01*
X109501308Y-50455764D01*
X109220000Y-50428057D01*
X108938691Y-50455764D01*
X108668192Y-50537818D01*
X108418899Y-50671068D01*
X108200392Y-50850393D01*
X108021068Y-51068900D01*
X107950000Y-51201858D01*
X107878932Y-51068899D01*
X107699607Y-50850392D01*
X107481100Y-50671068D01*
X107231807Y-50537818D01*
X106961308Y-50455764D01*
X106680000Y-50428057D01*
X106398691Y-50455764D01*
X106128192Y-50537818D01*
X105878899Y-50671068D01*
X105660392Y-50850393D01*
X105481068Y-51068900D01*
X105410000Y-51201858D01*
X105338932Y-51068899D01*
X105159607Y-50850392D01*
X104941100Y-50671068D01*
X104691807Y-50537818D01*
X104421308Y-50455764D01*
X104140000Y-50428057D01*
X103858691Y-50455764D01*
X103588192Y-50537818D01*
X103338899Y-50671068D01*
X103120392Y-50850393D01*
X102941068Y-51068900D01*
X102870000Y-51201858D01*
X102798932Y-51068899D01*
X102619607Y-50850392D01*
X102401100Y-50671068D01*
X102151807Y-50537818D01*
X101881308Y-50455764D01*
X101600000Y-50428057D01*
X101318691Y-50455764D01*
X101048192Y-50537818D01*
X100798899Y-50671068D01*
X100580392Y-50850393D01*
X100401068Y-51068900D01*
X100330000Y-51201858D01*
X100258932Y-51068899D01*
X100079607Y-50850392D01*
X99861100Y-50671068D01*
X99611807Y-50537818D01*
X99341308Y-50455764D01*
X99060000Y-50428057D01*
X98778691Y-50455764D01*
X98508192Y-50537818D01*
X98258899Y-50671068D01*
X98040392Y-50850393D01*
X97917000Y-51000747D01*
X97917000Y-45578665D01*
X121755000Y-45578665D01*
X121755000Y-45861335D01*
X121810147Y-46138574D01*
X121918320Y-46399727D01*
X122075363Y-46634759D01*
X122275241Y-46834637D01*
X122510273Y-46991680D01*
X122771426Y-47099853D01*
X123048665Y-47155000D01*
X123331335Y-47155000D01*
X123608574Y-47099853D01*
X123869727Y-46991680D01*
X124104759Y-46834637D01*
X124304637Y-46634759D01*
X124461680Y-46399727D01*
X124569853Y-46138574D01*
X124625000Y-45861335D01*
X124625000Y-45720000D01*
X131908057Y-45720000D01*
X131935764Y-46001309D01*
X132017818Y-46271808D01*
X132151068Y-46521101D01*
X132330392Y-46739608D01*
X132548899Y-46918932D01*
X132798192Y-47052182D01*
X133068691Y-47134236D01*
X133279508Y-47155000D01*
X133420492Y-47155000D01*
X133631309Y-47134236D01*
X133901808Y-47052182D01*
X134151101Y-46918932D01*
X134369608Y-46739608D01*
X134548932Y-46521101D01*
X134549783Y-46519508D01*
X140805000Y-46519508D01*
X140805000Y-47460491D01*
X140825764Y-47671308D01*
X140907818Y-47941807D01*
X141041068Y-48191100D01*
X141220392Y-48409607D01*
X141438899Y-48588932D01*
X141688192Y-48722182D01*
X141958691Y-48804236D01*
X142240000Y-48831943D01*
X142521308Y-48804236D01*
X142791807Y-48722182D01*
X143041100Y-48588932D01*
X143259607Y-48409608D01*
X143438932Y-48191101D01*
X143510000Y-48058142D01*
X143581068Y-48191100D01*
X143760392Y-48409607D01*
X143978899Y-48588932D01*
X144228192Y-48722182D01*
X144498691Y-48804236D01*
X144780000Y-48831943D01*
X145061308Y-48804236D01*
X145331807Y-48722182D01*
X145581100Y-48588932D01*
X145799607Y-48409608D01*
X145978932Y-48191101D01*
X146050000Y-48058142D01*
X146121068Y-48191100D01*
X146300392Y-48409607D01*
X146518899Y-48588932D01*
X146768192Y-48722182D01*
X147038691Y-48804236D01*
X147320000Y-48831943D01*
X147601308Y-48804236D01*
X147871807Y-48722182D01*
X148121100Y-48588932D01*
X148339607Y-48409608D01*
X148518932Y-48191101D01*
X148590000Y-48058142D01*
X148661068Y-48191100D01*
X148840392Y-48409607D01*
X149058899Y-48588932D01*
X149308192Y-48722182D01*
X149578691Y-48804236D01*
X149860000Y-48831943D01*
X150141308Y-48804236D01*
X150411807Y-48722182D01*
X150661100Y-48588932D01*
X150879607Y-48409608D01*
X151058932Y-48191101D01*
X151192182Y-47941808D01*
X151274236Y-47671309D01*
X151295000Y-47460492D01*
X151295000Y-46519509D01*
X151274236Y-46308691D01*
X151192182Y-46038192D01*
X151058932Y-45788899D01*
X150879608Y-45570392D01*
X150661101Y-45391068D01*
X150411808Y-45257818D01*
X150141309Y-45175764D01*
X149860000Y-45148057D01*
X149578692Y-45175764D01*
X149308193Y-45257818D01*
X149058900Y-45391068D01*
X148840393Y-45570392D01*
X148661068Y-45788899D01*
X148590000Y-45921858D01*
X148518932Y-45788899D01*
X148339608Y-45570392D01*
X148121101Y-45391068D01*
X147871808Y-45257818D01*
X147601309Y-45175764D01*
X147320000Y-45148057D01*
X147038692Y-45175764D01*
X146768193Y-45257818D01*
X146518900Y-45391068D01*
X146300393Y-45570392D01*
X146121068Y-45788899D01*
X146050000Y-45921858D01*
X145978932Y-45788899D01*
X145799608Y-45570392D01*
X145581101Y-45391068D01*
X145331808Y-45257818D01*
X145061309Y-45175764D01*
X144780000Y-45148057D01*
X144498692Y-45175764D01*
X144228193Y-45257818D01*
X143978900Y-45391068D01*
X143760393Y-45570392D01*
X143581068Y-45788899D01*
X143510000Y-45921858D01*
X143438932Y-45788899D01*
X143259608Y-45570392D01*
X143041101Y-45391068D01*
X142791808Y-45257818D01*
X142521309Y-45175764D01*
X142240000Y-45148057D01*
X141958692Y-45175764D01*
X141688193Y-45257818D01*
X141438900Y-45391068D01*
X141220393Y-45570392D01*
X141041068Y-45788899D01*
X140907818Y-46038192D01*
X140825764Y-46308691D01*
X140805000Y-46519508D01*
X134549783Y-46519508D01*
X134682182Y-46271808D01*
X134764236Y-46001309D01*
X134791943Y-45720000D01*
X134764236Y-45438691D01*
X134682182Y-45168192D01*
X134548932Y-44918899D01*
X134369608Y-44700392D01*
X134151101Y-44521068D01*
X133901808Y-44387818D01*
X133631309Y-44305764D01*
X133420492Y-44285000D01*
X133279508Y-44285000D01*
X133068691Y-44305764D01*
X132798192Y-44387818D01*
X132548899Y-44521068D01*
X132330392Y-44700392D01*
X132151068Y-44918899D01*
X132017818Y-45168192D01*
X131935764Y-45438691D01*
X131908057Y-45720000D01*
X124625000Y-45720000D01*
X124625000Y-45578665D01*
X124569853Y-45301426D01*
X124461680Y-45040273D01*
X124304637Y-44805241D01*
X124104759Y-44605363D01*
X123869727Y-44448320D01*
X123608574Y-44340147D01*
X123331335Y-44285000D01*
X123048665Y-44285000D01*
X122771426Y-44340147D01*
X122510273Y-44448320D01*
X122275241Y-44605363D01*
X122075363Y-44805241D01*
X121918320Y-45040273D01*
X121810147Y-45301426D01*
X121755000Y-45578665D01*
X97917000Y-45578665D01*
X97917000Y-41768665D01*
X121755000Y-41768665D01*
X121755000Y-42051335D01*
X121810147Y-42328574D01*
X121918320Y-42589727D01*
X122075363Y-42824759D01*
X122275241Y-43024637D01*
X122510273Y-43181680D01*
X122771426Y-43289853D01*
X123048665Y-43345000D01*
X123331335Y-43345000D01*
X123608574Y-43289853D01*
X123869727Y-43181680D01*
X124104759Y-43024637D01*
X124304637Y-42824759D01*
X124461680Y-42589727D01*
X124569853Y-42328574D01*
X124625000Y-42051335D01*
X124625000Y-41910000D01*
X131908057Y-41910000D01*
X131935764Y-42191309D01*
X132017818Y-42461808D01*
X132151068Y-42711101D01*
X132330392Y-42929608D01*
X132548899Y-43108932D01*
X132798192Y-43242182D01*
X133068691Y-43324236D01*
X133279508Y-43345000D01*
X133420492Y-43345000D01*
X133631309Y-43324236D01*
X133901808Y-43242182D01*
X134151101Y-43108932D01*
X134369608Y-42929608D01*
X134548932Y-42711101D01*
X134682182Y-42461808D01*
X134764236Y-42191309D01*
X134791943Y-41910000D01*
X151755783Y-41910000D01*
X151792564Y-42283445D01*
X151901494Y-42642539D01*
X152078387Y-42973482D01*
X152316444Y-43263556D01*
X152606518Y-43501613D01*
X152937461Y-43678506D01*
X153296555Y-43787436D01*
X153576418Y-43815000D01*
X163923582Y-43815000D01*
X164203445Y-43787436D01*
X164562539Y-43678506D01*
X164893482Y-43501613D01*
X165183556Y-43263556D01*
X165421613Y-42973482D01*
X165598506Y-42642539D01*
X165707436Y-42283445D01*
X165744217Y-41910000D01*
X165707436Y-41536555D01*
X165598506Y-41177461D01*
X165421613Y-40846518D01*
X165183556Y-40556444D01*
X164893482Y-40318387D01*
X164562539Y-40141494D01*
X164203445Y-40032564D01*
X163923582Y-40005000D01*
X153576418Y-40005000D01*
X153296555Y-40032564D01*
X152937461Y-40141494D01*
X152606518Y-40318387D01*
X152316444Y-40556444D01*
X152078387Y-40846518D01*
X151901494Y-41177461D01*
X151792564Y-41536555D01*
X151755783Y-41910000D01*
X134791943Y-41910000D01*
X134764236Y-41628691D01*
X134682182Y-41358192D01*
X134548932Y-41108899D01*
X134369608Y-40890392D01*
X134151101Y-40711068D01*
X133901808Y-40577818D01*
X133631309Y-40495764D01*
X133420492Y-40475000D01*
X133279508Y-40475000D01*
X133068691Y-40495764D01*
X132798192Y-40577818D01*
X132548899Y-40711068D01*
X132330392Y-40890392D01*
X132151068Y-41108899D01*
X132017818Y-41358192D01*
X131935764Y-41628691D01*
X131908057Y-41910000D01*
X124625000Y-41910000D01*
X124625000Y-41768665D01*
X124569853Y-41491426D01*
X124461680Y-41230273D01*
X124304637Y-40995241D01*
X124104759Y-40795363D01*
X123869727Y-40638320D01*
X123608574Y-40530147D01*
X123331335Y-40475000D01*
X123048665Y-40475000D01*
X122771426Y-40530147D01*
X122510273Y-40638320D01*
X122275241Y-40795363D01*
X122075363Y-40995241D01*
X121918320Y-41230273D01*
X121810147Y-41491426D01*
X121755000Y-41768665D01*
X97917000Y-41768665D01*
X97917000Y-38899508D01*
X140805000Y-38899508D01*
X140805000Y-39840491D01*
X140825764Y-40051308D01*
X140907818Y-40321807D01*
X141041068Y-40571100D01*
X141220392Y-40789607D01*
X141438899Y-40968932D01*
X141688192Y-41102182D01*
X141958691Y-41184236D01*
X142240000Y-41211943D01*
X142521308Y-41184236D01*
X142791807Y-41102182D01*
X143041100Y-40968932D01*
X143259607Y-40789608D01*
X143438932Y-40571101D01*
X143510000Y-40438142D01*
X143581068Y-40571100D01*
X143760392Y-40789607D01*
X143978899Y-40968932D01*
X144228192Y-41102182D01*
X144498691Y-41184236D01*
X144780000Y-41211943D01*
X145061308Y-41184236D01*
X145331807Y-41102182D01*
X145581100Y-40968932D01*
X145799607Y-40789608D01*
X145978932Y-40571101D01*
X146050000Y-40438142D01*
X146121068Y-40571100D01*
X146300392Y-40789607D01*
X146518899Y-40968932D01*
X146768192Y-41102182D01*
X147038691Y-41184236D01*
X147320000Y-41211943D01*
X147601308Y-41184236D01*
X147871807Y-41102182D01*
X148121100Y-40968932D01*
X148339607Y-40789608D01*
X148432419Y-40676517D01*
X148434188Y-40694482D01*
X148470498Y-40814180D01*
X148529463Y-40924494D01*
X148608815Y-41021185D01*
X148705506Y-41100537D01*
X148815820Y-41159502D01*
X148935518Y-41195812D01*
X149060000Y-41208072D01*
X150660000Y-41208072D01*
X150784482Y-41195812D01*
X150904180Y-41159502D01*
X151014494Y-41100537D01*
X151111185Y-41021185D01*
X151190537Y-40924494D01*
X151249502Y-40814180D01*
X151285812Y-40694482D01*
X151298072Y-40570000D01*
X151298072Y-38170000D01*
X151285812Y-38045518D01*
X151249502Y-37925820D01*
X151190537Y-37815506D01*
X151111185Y-37718815D01*
X151014494Y-37639463D01*
X150904180Y-37580498D01*
X150784482Y-37544188D01*
X150660000Y-37531928D01*
X149060000Y-37531928D01*
X148935518Y-37544188D01*
X148815820Y-37580498D01*
X148705506Y-37639463D01*
X148608815Y-37718815D01*
X148529463Y-37815506D01*
X148470498Y-37925820D01*
X148434188Y-38045518D01*
X148432419Y-38063482D01*
X148339608Y-37950392D01*
X148121101Y-37771068D01*
X147871808Y-37637818D01*
X147601309Y-37555764D01*
X147320000Y-37528057D01*
X147038692Y-37555764D01*
X146768193Y-37637818D01*
X146518900Y-37771068D01*
X146300393Y-37950392D01*
X146121068Y-38168899D01*
X146050000Y-38301858D01*
X145978932Y-38168899D01*
X145799608Y-37950392D01*
X145581101Y-37771068D01*
X145331808Y-37637818D01*
X145061309Y-37555764D01*
X144780000Y-37528057D01*
X144498692Y-37555764D01*
X144228193Y-37637818D01*
X143978900Y-37771068D01*
X143760393Y-37950392D01*
X143581068Y-38168899D01*
X143510000Y-38301858D01*
X143438932Y-38168899D01*
X143259608Y-37950392D01*
X143041101Y-37771068D01*
X142791808Y-37637818D01*
X142521309Y-37555764D01*
X142240000Y-37528057D01*
X141958692Y-37555764D01*
X141688193Y-37637818D01*
X141438900Y-37771068D01*
X141220393Y-37950392D01*
X141041068Y-38168899D01*
X140907818Y-38418192D01*
X140825764Y-38688691D01*
X140805000Y-38899508D01*
X97917000Y-38899508D01*
X97917000Y-37179039D01*
X122668096Y-37179039D01*
X122685633Y-37261818D01*
X122796285Y-37521646D01*
X122955500Y-37754895D01*
X123157161Y-37952601D01*
X123393517Y-38107166D01*
X123655486Y-38212650D01*
X123933000Y-38265000D01*
X124333000Y-38265000D01*
X124333000Y-36957000D01*
X124587000Y-36957000D01*
X124587000Y-38265000D01*
X124987000Y-38265000D01*
X125264514Y-38212650D01*
X125526483Y-38107166D01*
X125762839Y-37952601D01*
X125964500Y-37754895D01*
X126123715Y-37521646D01*
X126234367Y-37261818D01*
X126251904Y-37179039D01*
X126129915Y-36957000D01*
X124587000Y-36957000D01*
X124333000Y-36957000D01*
X122790085Y-36957000D01*
X122668096Y-37179039D01*
X97917000Y-37179039D01*
X97917000Y-31750000D01*
X122618057Y-31750000D01*
X122645764Y-32031309D01*
X122727818Y-32301808D01*
X122861068Y-32551101D01*
X123040392Y-32769608D01*
X123258899Y-32948932D01*
X123391858Y-33020000D01*
X123258899Y-33091068D01*
X123040392Y-33270392D01*
X122861068Y-33488899D01*
X122727818Y-33738192D01*
X122645764Y-34008691D01*
X122618057Y-34290000D01*
X122645764Y-34571309D01*
X122727818Y-34841808D01*
X122861068Y-35091101D01*
X123040392Y-35309608D01*
X123258899Y-35488932D01*
X123386741Y-35557265D01*
X123157161Y-35707399D01*
X122955500Y-35905105D01*
X122796285Y-36138354D01*
X122685633Y-36398182D01*
X122668096Y-36480961D01*
X122790085Y-36703000D01*
X124333000Y-36703000D01*
X124333000Y-36683000D01*
X124587000Y-36683000D01*
X124587000Y-36703000D01*
X126129915Y-36703000D01*
X126251904Y-36480961D01*
X126234367Y-36398182D01*
X126123715Y-36138354D01*
X125964500Y-35905105D01*
X125762839Y-35707399D01*
X125533259Y-35557265D01*
X125661101Y-35488932D01*
X125879608Y-35309608D01*
X126058932Y-35091101D01*
X126192182Y-34841808D01*
X126274236Y-34571309D01*
X126301943Y-34290000D01*
X126274236Y-34008691D01*
X126192182Y-33738192D01*
X126058932Y-33488899D01*
X125879608Y-33270392D01*
X125661101Y-33091068D01*
X125528142Y-33020000D01*
X125661101Y-32948932D01*
X125879608Y-32769608D01*
X126058932Y-32551101D01*
X126192182Y-32301808D01*
X126274236Y-32031309D01*
X126301943Y-31750000D01*
X126274236Y-31468691D01*
X126192182Y-31198192D01*
X126058932Y-30948899D01*
X125879608Y-30730392D01*
X125661101Y-30551068D01*
X125533259Y-30482735D01*
X125762839Y-30332601D01*
X125964500Y-30134895D01*
X126123715Y-29901646D01*
X126234367Y-29641818D01*
X126251904Y-29559039D01*
X126129916Y-29337002D01*
X126295000Y-29337002D01*
X126295000Y-29210000D01*
X130238057Y-29210000D01*
X130265764Y-29491309D01*
X130347818Y-29761808D01*
X130481068Y-30011101D01*
X130660392Y-30229608D01*
X130878899Y-30408932D01*
X131011858Y-30480000D01*
X130878899Y-30551068D01*
X130660392Y-30730392D01*
X130481068Y-30948899D01*
X130347818Y-31198192D01*
X130265764Y-31468691D01*
X130238057Y-31750000D01*
X130265764Y-32031309D01*
X130347818Y-32301808D01*
X130481068Y-32551101D01*
X130660392Y-32769608D01*
X130878899Y-32948932D01*
X131011858Y-33020000D01*
X130878899Y-33091068D01*
X130660392Y-33270392D01*
X130481068Y-33488899D01*
X130347818Y-33738192D01*
X130265764Y-34008691D01*
X130238057Y-34290000D01*
X130265764Y-34571309D01*
X130347818Y-34841808D01*
X130481068Y-35091101D01*
X130660392Y-35309608D01*
X130773482Y-35402419D01*
X130755518Y-35404188D01*
X130635820Y-35440498D01*
X130525506Y-35499463D01*
X130428815Y-35578815D01*
X130349463Y-35675506D01*
X130290498Y-35785820D01*
X130254188Y-35905518D01*
X130241928Y-36030000D01*
X130241928Y-37630000D01*
X130254188Y-37754482D01*
X130290498Y-37874180D01*
X130349463Y-37984494D01*
X130428815Y-38081185D01*
X130525506Y-38160537D01*
X130635820Y-38219502D01*
X130755518Y-38255812D01*
X130880000Y-38268072D01*
X133280000Y-38268072D01*
X133404482Y-38255812D01*
X133524180Y-38219502D01*
X133634494Y-38160537D01*
X133731185Y-38081185D01*
X133810537Y-37984494D01*
X133869502Y-37874180D01*
X133905812Y-37754482D01*
X133918072Y-37630000D01*
X133918072Y-36030000D01*
X133905812Y-35905518D01*
X133869502Y-35785820D01*
X133810537Y-35675506D01*
X133731185Y-35578815D01*
X133634494Y-35499463D01*
X133524180Y-35440498D01*
X133404482Y-35404188D01*
X133386518Y-35402419D01*
X133499608Y-35309608D01*
X133678932Y-35091101D01*
X133812182Y-34841808D01*
X133894236Y-34571309D01*
X133921943Y-34290000D01*
X133894236Y-34008691D01*
X133812182Y-33738192D01*
X133678932Y-33488899D01*
X133499608Y-33270392D01*
X133281101Y-33091068D01*
X133148142Y-33020000D01*
X134448057Y-33020000D01*
X134475764Y-33301309D01*
X134557818Y-33571808D01*
X134691068Y-33821101D01*
X134870392Y-34039608D01*
X135088899Y-34218932D01*
X135338192Y-34352182D01*
X135608691Y-34434236D01*
X135819508Y-34455000D01*
X135960492Y-34455000D01*
X136171309Y-34434236D01*
X136441808Y-34352182D01*
X136691101Y-34218932D01*
X136909608Y-34039608D01*
X137088932Y-33821101D01*
X137222182Y-33571808D01*
X137304236Y-33301309D01*
X137331943Y-33020000D01*
X137304236Y-32738691D01*
X137222182Y-32468192D01*
X137089521Y-32220000D01*
X142071928Y-32220000D01*
X142071928Y-33820000D01*
X142084188Y-33944482D01*
X142120498Y-34064180D01*
X142179463Y-34174494D01*
X142258815Y-34271185D01*
X142355506Y-34350537D01*
X142465820Y-34409502D01*
X142585518Y-34445812D01*
X142710000Y-34458072D01*
X144310000Y-34458072D01*
X144434482Y-34445812D01*
X144554180Y-34409502D01*
X144664494Y-34350537D01*
X144761185Y-34271185D01*
X144840537Y-34174494D01*
X144899502Y-34064180D01*
X144935812Y-33944482D01*
X144948072Y-33820000D01*
X144948072Y-32878665D01*
X145885000Y-32878665D01*
X145885000Y-33161335D01*
X145940147Y-33438574D01*
X146048320Y-33699727D01*
X146205363Y-33934759D01*
X146405241Y-34134637D01*
X146640273Y-34291680D01*
X146901426Y-34399853D01*
X147178665Y-34455000D01*
X147461335Y-34455000D01*
X147738574Y-34399853D01*
X147999727Y-34291680D01*
X148234759Y-34134637D01*
X148434637Y-33934759D01*
X148591680Y-33699727D01*
X148699853Y-33438574D01*
X148755000Y-33161335D01*
X148755000Y-33020000D01*
X156038057Y-33020000D01*
X156065764Y-33301309D01*
X156147818Y-33571808D01*
X156281068Y-33821101D01*
X156460392Y-34039608D01*
X156678899Y-34218932D01*
X156928192Y-34352182D01*
X157198691Y-34434236D01*
X157409508Y-34455000D01*
X157550492Y-34455000D01*
X157761309Y-34434236D01*
X158031808Y-34352182D01*
X158281101Y-34218932D01*
X158499608Y-34039608D01*
X158678932Y-33821101D01*
X158812182Y-33571808D01*
X158894236Y-33301309D01*
X158921943Y-33020000D01*
X158894236Y-32738691D01*
X158812182Y-32468192D01*
X158678932Y-32218899D01*
X158499608Y-32000392D01*
X158281101Y-31821068D01*
X158031808Y-31687818D01*
X157761309Y-31605764D01*
X157550492Y-31585000D01*
X157409508Y-31585000D01*
X157198691Y-31605764D01*
X156928192Y-31687818D01*
X156678899Y-31821068D01*
X156460392Y-32000392D01*
X156281068Y-32218899D01*
X156147818Y-32468192D01*
X156065764Y-32738691D01*
X156038057Y-33020000D01*
X148755000Y-33020000D01*
X148755000Y-32878665D01*
X148699853Y-32601426D01*
X148591680Y-32340273D01*
X148434637Y-32105241D01*
X148234759Y-31905363D01*
X147999727Y-31748320D01*
X147738574Y-31640147D01*
X147461335Y-31585000D01*
X147178665Y-31585000D01*
X146901426Y-31640147D01*
X146640273Y-31748320D01*
X146405241Y-31905363D01*
X146205363Y-32105241D01*
X146048320Y-32340273D01*
X145940147Y-32601426D01*
X145885000Y-32878665D01*
X144948072Y-32878665D01*
X144948072Y-32220000D01*
X144935812Y-32095518D01*
X144899502Y-31975820D01*
X144840537Y-31865506D01*
X144761185Y-31768815D01*
X144664494Y-31689463D01*
X144554180Y-31630498D01*
X144434482Y-31594188D01*
X144310000Y-31581928D01*
X142710000Y-31581928D01*
X142585518Y-31594188D01*
X142465820Y-31630498D01*
X142355506Y-31689463D01*
X142258815Y-31768815D01*
X142179463Y-31865506D01*
X142120498Y-31975820D01*
X142084188Y-32095518D01*
X142071928Y-32220000D01*
X137089521Y-32220000D01*
X137088932Y-32218899D01*
X136909608Y-32000392D01*
X136691101Y-31821068D01*
X136441808Y-31687818D01*
X136171309Y-31605764D01*
X135960492Y-31585000D01*
X135819508Y-31585000D01*
X135608691Y-31605764D01*
X135338192Y-31687818D01*
X135088899Y-31821068D01*
X134870392Y-32000392D01*
X134691068Y-32218899D01*
X134557818Y-32468192D01*
X134475764Y-32738691D01*
X134448057Y-33020000D01*
X133148142Y-33020000D01*
X133281101Y-32948932D01*
X133499608Y-32769608D01*
X133678932Y-32551101D01*
X133812182Y-32301808D01*
X133894236Y-32031309D01*
X133921943Y-31750000D01*
X133894236Y-31468691D01*
X133812182Y-31198192D01*
X133678932Y-30948899D01*
X133499608Y-30730392D01*
X133281101Y-30551068D01*
X133148142Y-30480000D01*
X133281101Y-30408932D01*
X133499608Y-30229608D01*
X133678932Y-30011101D01*
X133812182Y-29761808D01*
X133894236Y-29491309D01*
X133921943Y-29210000D01*
X134448057Y-29210000D01*
X134475764Y-29491309D01*
X134557818Y-29761808D01*
X134691068Y-30011101D01*
X134870392Y-30229608D01*
X135088899Y-30408932D01*
X135338192Y-30542182D01*
X135608691Y-30624236D01*
X135819508Y-30645000D01*
X135960492Y-30645000D01*
X136171309Y-30624236D01*
X136441808Y-30542182D01*
X136691101Y-30408932D01*
X136909608Y-30229608D01*
X137088932Y-30011101D01*
X137222182Y-29761808D01*
X137304236Y-29491309D01*
X137331943Y-29210000D01*
X137304236Y-28928691D01*
X137222182Y-28658192D01*
X137089521Y-28410000D01*
X142071928Y-28410000D01*
X142071928Y-30010000D01*
X142084188Y-30134482D01*
X142120498Y-30254180D01*
X142179463Y-30364494D01*
X142258815Y-30461185D01*
X142355506Y-30540537D01*
X142465820Y-30599502D01*
X142585518Y-30635812D01*
X142710000Y-30648072D01*
X144310000Y-30648072D01*
X144434482Y-30635812D01*
X144554180Y-30599502D01*
X144664494Y-30540537D01*
X144761185Y-30461185D01*
X144840537Y-30364494D01*
X144899502Y-30254180D01*
X144935812Y-30134482D01*
X144948072Y-30010000D01*
X144948072Y-29068665D01*
X145885000Y-29068665D01*
X145885000Y-29351335D01*
X145940147Y-29628574D01*
X146048320Y-29889727D01*
X146205363Y-30124759D01*
X146405241Y-30324637D01*
X146640273Y-30481680D01*
X146901426Y-30589853D01*
X147178665Y-30645000D01*
X147461335Y-30645000D01*
X147738574Y-30589853D01*
X147999727Y-30481680D01*
X148234759Y-30324637D01*
X148434637Y-30124759D01*
X148591680Y-29889727D01*
X148699853Y-29628574D01*
X148755000Y-29351335D01*
X148755000Y-29210000D01*
X156038057Y-29210000D01*
X156065764Y-29491309D01*
X156147818Y-29761808D01*
X156281068Y-30011101D01*
X156460392Y-30229608D01*
X156678899Y-30408932D01*
X156928192Y-30542182D01*
X157198691Y-30624236D01*
X157409508Y-30645000D01*
X157550492Y-30645000D01*
X157761309Y-30624236D01*
X158031808Y-30542182D01*
X158281101Y-30408932D01*
X158499608Y-30229608D01*
X158678932Y-30011101D01*
X158812182Y-29761808D01*
X158894236Y-29491309D01*
X158921943Y-29210000D01*
X158894236Y-28928691D01*
X158812182Y-28658192D01*
X158678932Y-28408899D01*
X158499608Y-28190392D01*
X158281101Y-28011068D01*
X158031808Y-27877818D01*
X157761309Y-27795764D01*
X157550492Y-27775000D01*
X157409508Y-27775000D01*
X157198691Y-27795764D01*
X156928192Y-27877818D01*
X156678899Y-28011068D01*
X156460392Y-28190392D01*
X156281068Y-28408899D01*
X156147818Y-28658192D01*
X156065764Y-28928691D01*
X156038057Y-29210000D01*
X148755000Y-29210000D01*
X148755000Y-29068665D01*
X148699853Y-28791426D01*
X148591680Y-28530273D01*
X148434637Y-28295241D01*
X148234759Y-28095363D01*
X147999727Y-27938320D01*
X147738574Y-27830147D01*
X147461335Y-27775000D01*
X147178665Y-27775000D01*
X146901426Y-27830147D01*
X146640273Y-27938320D01*
X146405241Y-28095363D01*
X146205363Y-28295241D01*
X146048320Y-28530273D01*
X145940147Y-28791426D01*
X145885000Y-29068665D01*
X144948072Y-29068665D01*
X144948072Y-28410000D01*
X144935812Y-28285518D01*
X144899502Y-28165820D01*
X144840537Y-28055506D01*
X144761185Y-27958815D01*
X144664494Y-27879463D01*
X144554180Y-27820498D01*
X144434482Y-27784188D01*
X144310000Y-27771928D01*
X142710000Y-27771928D01*
X142585518Y-27784188D01*
X142465820Y-27820498D01*
X142355506Y-27879463D01*
X142258815Y-27958815D01*
X142179463Y-28055506D01*
X142120498Y-28165820D01*
X142084188Y-28285518D01*
X142071928Y-28410000D01*
X137089521Y-28410000D01*
X137088932Y-28408899D01*
X136909608Y-28190392D01*
X136691101Y-28011068D01*
X136441808Y-27877818D01*
X136171309Y-27795764D01*
X135960492Y-27775000D01*
X135819508Y-27775000D01*
X135608691Y-27795764D01*
X135338192Y-27877818D01*
X135088899Y-28011068D01*
X134870392Y-28190392D01*
X134691068Y-28408899D01*
X134557818Y-28658192D01*
X134475764Y-28928691D01*
X134448057Y-29210000D01*
X133921943Y-29210000D01*
X133894236Y-28928691D01*
X133812182Y-28658192D01*
X133678932Y-28408899D01*
X133499608Y-28190392D01*
X133281101Y-28011068D01*
X133031808Y-27877818D01*
X132761309Y-27795764D01*
X132550492Y-27775000D01*
X131609508Y-27775000D01*
X131398691Y-27795764D01*
X131128192Y-27877818D01*
X130878899Y-28011068D01*
X130660392Y-28190392D01*
X130481068Y-28408899D01*
X130347818Y-28658192D01*
X130265764Y-28928691D01*
X130238057Y-29210000D01*
X126295000Y-29210000D01*
X126295000Y-29082998D01*
X126129916Y-29082998D01*
X126251904Y-28860961D01*
X126234367Y-28778182D01*
X126123715Y-28518354D01*
X125964500Y-28285105D01*
X125762839Y-28087399D01*
X125526483Y-27932834D01*
X125264514Y-27827350D01*
X124987000Y-27775000D01*
X123933000Y-27775000D01*
X123655486Y-27827350D01*
X123393517Y-27932834D01*
X123157161Y-28087399D01*
X122955500Y-28285105D01*
X122796285Y-28518354D01*
X122685633Y-28778182D01*
X122668096Y-28860961D01*
X122790084Y-29082998D01*
X122625000Y-29082998D01*
X122625000Y-29337002D01*
X122790084Y-29337002D01*
X122668096Y-29559039D01*
X122685633Y-29641818D01*
X122796285Y-29901646D01*
X122955500Y-30134895D01*
X123157161Y-30332601D01*
X123386741Y-30482735D01*
X123258899Y-30551068D01*
X123040392Y-30730392D01*
X122861068Y-30948899D01*
X122727818Y-31198192D01*
X122645764Y-31468691D01*
X122618057Y-31750000D01*
X97917000Y-31750000D01*
X97917000Y-30279254D01*
X98040393Y-30429608D01*
X98258900Y-30608932D01*
X98508193Y-30742182D01*
X98778692Y-30824236D01*
X99060000Y-30851943D01*
X99341309Y-30824236D01*
X99611808Y-30742182D01*
X99861101Y-30608932D01*
X100079608Y-30429608D01*
X100258932Y-30211101D01*
X100330000Y-30078142D01*
X100401068Y-30211101D01*
X100580393Y-30429608D01*
X100798900Y-30608932D01*
X101048193Y-30742182D01*
X101318692Y-30824236D01*
X101600000Y-30851943D01*
X101881309Y-30824236D01*
X102151808Y-30742182D01*
X102401101Y-30608932D01*
X102619608Y-30429608D01*
X102798932Y-30211101D01*
X102870000Y-30078142D01*
X102941068Y-30211101D01*
X103120393Y-30429608D01*
X103338900Y-30608932D01*
X103588193Y-30742182D01*
X103858692Y-30824236D01*
X104140000Y-30851943D01*
X104421309Y-30824236D01*
X104691808Y-30742182D01*
X104941101Y-30608932D01*
X105159608Y-30429608D01*
X105338932Y-30211101D01*
X105410000Y-30078142D01*
X105481068Y-30211101D01*
X105660393Y-30429608D01*
X105878900Y-30608932D01*
X106128193Y-30742182D01*
X106398692Y-30824236D01*
X106680000Y-30851943D01*
X106961309Y-30824236D01*
X107231808Y-30742182D01*
X107481101Y-30608932D01*
X107699608Y-30429608D01*
X107878932Y-30211101D01*
X107948122Y-30081655D01*
X107955570Y-30099227D01*
X108114327Y-30332662D01*
X108315575Y-30530639D01*
X108551579Y-30685551D01*
X108813270Y-30791444D01*
X108870961Y-30801904D01*
X109093000Y-30679915D01*
X109093000Y-29337000D01*
X109073000Y-29337000D01*
X109073000Y-29083000D01*
X109093000Y-29083000D01*
X109093000Y-29063000D01*
X109347000Y-29063000D01*
X109347000Y-29083000D01*
X109367000Y-29083000D01*
X109367000Y-29337000D01*
X109347000Y-29337000D01*
X109347000Y-30679915D01*
X109569039Y-30801904D01*
X109626730Y-30791444D01*
X109888421Y-30685551D01*
X110124425Y-30530639D01*
X110325673Y-30332662D01*
X110484430Y-30099227D01*
X110491878Y-30081655D01*
X110561068Y-30211101D01*
X110740393Y-30429608D01*
X110958900Y-30608932D01*
X111208193Y-30742182D01*
X111478692Y-30824236D01*
X111760000Y-30851943D01*
X112041309Y-30824236D01*
X112311808Y-30742182D01*
X112561101Y-30608932D01*
X112779608Y-30429608D01*
X112958932Y-30211101D01*
X113092182Y-29961807D01*
X113174236Y-29691308D01*
X113195000Y-29480491D01*
X113195000Y-28939508D01*
X113174236Y-28728691D01*
X113092182Y-28458192D01*
X112958932Y-28208899D01*
X112779607Y-27990392D01*
X112561100Y-27811068D01*
X112327114Y-27686000D01*
X164679160Y-27686000D01*
X165239662Y-28246502D01*
X165129294Y-28380986D01*
X165100000Y-28435791D01*
X165070706Y-28380986D01*
X164885134Y-28154866D01*
X164659014Y-27969294D01*
X164401034Y-27831401D01*
X164121111Y-27746487D01*
X163902950Y-27725000D01*
X163757050Y-27725000D01*
X163538889Y-27746487D01*
X163258966Y-27831401D01*
X163000986Y-27969294D01*
X162774866Y-28154866D01*
X162589294Y-28380986D01*
X162451401Y-28638966D01*
X162366487Y-28918889D01*
X162337815Y-29210000D01*
X162366487Y-29501111D01*
X162451401Y-29781034D01*
X162589294Y-30039014D01*
X162774866Y-30265134D01*
X163000986Y-30450706D01*
X163258966Y-30588599D01*
X163538889Y-30673513D01*
X163757050Y-30695000D01*
X163902950Y-30695000D01*
X164121111Y-30673513D01*
X164401034Y-30588599D01*
X164659014Y-30450706D01*
X164885134Y-30265134D01*
X165070706Y-30039014D01*
X165100000Y-29984209D01*
X165129294Y-30039014D01*
X165314866Y-30265134D01*
X165540986Y-30450706D01*
X165798966Y-30588599D01*
X166078889Y-30673513D01*
X166297050Y-30695000D01*
X166442950Y-30695000D01*
X166661111Y-30673513D01*
X166941034Y-30588599D01*
X167199014Y-30450706D01*
X167425134Y-30265134D01*
X167449607Y-30235313D01*
X167470498Y-30304180D01*
X167529463Y-30414494D01*
X167608815Y-30511185D01*
X167705506Y-30590537D01*
X167815820Y-30649502D01*
X167935518Y-30685812D01*
X168060000Y-30698072D01*
X168624250Y-30695000D01*
X168783000Y-30536250D01*
X168783000Y-29337000D01*
X169037000Y-29337000D01*
X169037000Y-30536250D01*
X169195750Y-30695000D01*
X169760000Y-30698072D01*
X169884482Y-30685812D01*
X170004180Y-30649502D01*
X170114494Y-30590537D01*
X170211185Y-30511185D01*
X170290537Y-30414494D01*
X170349502Y-30304180D01*
X170385812Y-30184482D01*
X170398072Y-30060000D01*
X170395000Y-29495750D01*
X170236250Y-29337000D01*
X169037000Y-29337000D01*
X168783000Y-29337000D01*
X168763000Y-29337000D01*
X168763000Y-29083000D01*
X168783000Y-29083000D01*
X168783000Y-27883750D01*
X169037000Y-27883750D01*
X169037000Y-29083000D01*
X170236250Y-29083000D01*
X170395000Y-28924250D01*
X170398072Y-28360000D01*
X170385812Y-28235518D01*
X170349502Y-28115820D01*
X170290537Y-28005506D01*
X170211185Y-27908815D01*
X170114494Y-27829463D01*
X170004180Y-27770498D01*
X169884482Y-27734188D01*
X169760000Y-27721928D01*
X169195750Y-27725000D01*
X169037000Y-27883750D01*
X168783000Y-27883750D01*
X168624250Y-27725000D01*
X168060000Y-27721928D01*
X167935518Y-27734188D01*
X167815820Y-27770498D01*
X167705506Y-27829463D01*
X167608815Y-27908815D01*
X167529463Y-28005506D01*
X167470498Y-28115820D01*
X167449607Y-28184687D01*
X167425134Y-28154866D01*
X167386000Y-28122750D01*
X167386000Y-27989893D01*
X167390914Y-27939999D01*
X167386000Y-27890105D01*
X167386000Y-27890098D01*
X167371298Y-27740829D01*
X167313202Y-27549313D01*
X167218860Y-27372810D01*
X167091896Y-27218104D01*
X167053133Y-27186292D01*
X165951840Y-26085000D01*
X172035000Y-26085000D01*
X172035001Y-57735000D01*
X172035001Y-57735000D01*
G37*
X172035001Y-57735000D02*
X97917000Y-57735000D01*
X97917000Y-54966891D01*
X129368519Y-54966891D01*
X129465843Y-55241252D01*
X129614822Y-55491355D01*
X129809731Y-55707588D01*
X130043080Y-55881641D01*
X130305901Y-56006825D01*
X130453110Y-56051476D01*
X130683000Y-55930155D01*
X130683000Y-54737000D01*
X129489186Y-54737000D01*
X129368519Y-54966891D01*
X97917000Y-54966891D01*
X97917000Y-54253109D01*
X129368519Y-54253109D01*
X129489186Y-54483000D01*
X130683000Y-54483000D01*
X130683000Y-53289845D01*
X130937000Y-53289845D01*
X130937000Y-54483000D01*
X130957000Y-54483000D01*
X130957000Y-54737000D01*
X130937000Y-54737000D01*
X130937000Y-55930155D01*
X131166890Y-56051476D01*
X131314099Y-56006825D01*
X131576920Y-55881641D01*
X131810269Y-55707588D01*
X132005178Y-55491355D01*
X132074799Y-55374477D01*
X132109294Y-55439014D01*
X132294866Y-55665134D01*
X132520986Y-55850706D01*
X132778966Y-55988599D01*
X133058889Y-56073513D01*
X133277050Y-56095000D01*
X133422950Y-56095000D01*
X133641111Y-56073513D01*
X133921034Y-55988599D01*
X134179014Y-55850706D01*
X134405134Y-55665134D01*
X134590706Y-55439014D01*
X134620000Y-55384209D01*
X134649294Y-55439014D01*
X134834866Y-55665134D01*
X135060986Y-55850706D01*
X135318966Y-55988599D01*
X135598889Y-56073513D01*
X135817050Y-56095000D01*
X135962950Y-56095000D01*
X136181111Y-56073513D01*
X136461034Y-55988599D01*
X136719014Y-55850706D01*
X136945134Y-55665134D01*
X137130706Y-55439014D01*
X137160000Y-55384209D01*
X137189294Y-55439014D01*
X137374866Y-55665134D01*
X137600986Y-55850706D01*
X137858966Y-55988599D01*
X138138889Y-56073513D01*
X138357050Y-56095000D01*
X138502950Y-56095000D01*
X138721111Y-56073513D01*
X139001034Y-55988599D01*
X139259014Y-55850706D01*
X139485134Y-55665134D01*
X139670706Y-55439014D01*
X139700000Y-55384209D01*
X139729294Y-55439014D01*
X139914866Y-55665134D01*
X140140986Y-55850706D01*
X140398966Y-55988599D01*
X140678889Y-56073513D01*
X140897050Y-56095000D01*
X141042950Y-56095000D01*
X141261111Y-56073513D01*
X141541034Y-55988599D01*
X141799014Y-55850706D01*
X142025134Y-55665134D01*
X142210706Y-55439014D01*
X142240000Y-55384209D01*
X142269294Y-55439014D01*
X142454866Y-55665134D01*
X142680986Y-55850706D01*
X142938966Y-55988599D01*
X143218889Y-56073513D01*
X143437050Y-56095000D01*
X143582950Y-56095000D01*
X143801111Y-56073513D01*
X144081034Y-55988599D01*
X144339014Y-55850706D01*
X144565134Y-55665134D01*
X144750706Y-55439014D01*
X144780000Y-55384209D01*
X144809294Y-55439014D01*
X144994866Y-55665134D01*
X145220986Y-55850706D01*
X145478966Y-55988599D01*
X145758889Y-56073513D01*
X145977050Y-56095000D01*
X146122950Y-56095000D01*
X146341111Y-56073513D01*
X146621034Y-55988599D01*
X146879014Y-55850706D01*
X147105134Y-55665134D01*
X147129607Y-55635313D01*
X147150498Y-55704180D01*
X147209463Y-55814494D01*
X147288815Y-55911185D01*
X147385506Y-55990537D01*
X147495820Y-56049502D01*
X147615518Y-56085812D01*
X147740000Y-56098072D01*
X149440000Y-56098072D01*
X149564482Y-56085812D01*
X149684180Y-56049502D01*
X149794494Y-55990537D01*
X149891185Y-55911185D01*
X149970537Y-55814494D01*
X150029502Y-55704180D01*
X150065812Y-55584482D01*
X150078072Y-55460000D01*
X150078072Y-53760000D01*
X159801928Y-53760000D01*
X159801928Y-55460000D01*
X159814188Y-55584482D01*
X159850498Y-55704180D01*
X159909463Y-55814494D01*
X159988815Y-55911185D01*
X160085506Y-55990537D01*
X160195820Y-56049502D01*
X160315518Y-56085812D01*
X160440000Y-56098072D01*
X162140000Y-56098072D01*
X162264482Y-56085812D01*
X162384180Y-56049502D01*
X162494494Y-55990537D01*
X162591185Y-55911185D01*
X162670537Y-55814494D01*
X162729502Y-55704180D01*
X162750393Y-55635313D01*
X162774866Y-55665134D01*
X163000986Y-55850706D01*
X163258966Y-55988599D01*
X163538889Y-56073513D01*
X163757050Y-56095000D01*
X163902950Y-56095000D01*
X164121111Y-56073513D01*
X164401034Y-55988599D01*
X164659014Y-55850706D01*
X164885134Y-55665134D01*
X165070706Y-55439014D01*
X165105201Y-55374477D01*
X165174822Y-55491355D01*
X165369731Y-55707588D01*
X165603080Y-55881641D01*
X165865901Y-56006825D01*
X166013110Y-56051476D01*
X166243000Y-55930155D01*
X166243000Y-54737000D01*
X166223000Y-54737000D01*
X166223000Y-54483000D01*
X166243000Y-54483000D01*
X166243000Y-53289845D01*
X166497000Y-53289845D01*
X166497000Y-54483000D01*
X166517000Y-54483000D01*
X166517000Y-54737000D01*
X166497000Y-54737000D01*
X166497000Y-55930155D01*
X166726890Y-56051476D01*
X166874099Y-56006825D01*
X167136920Y-55881641D01*
X167370269Y-55707588D01*
X167565178Y-55491355D01*
X167634799Y-55374477D01*
X167669294Y-55439014D01*
X167854866Y-55665134D01*
X168080986Y-55850706D01*
X168338966Y-55988599D01*
X168618889Y-56073513D01*
X168837050Y-56095000D01*
X168982950Y-56095000D01*
X169201111Y-56073513D01*
X169481034Y-55988599D01*
X169739014Y-55850706D01*
X169965134Y-55665134D01*
X170150706Y-55439014D01*
X170288599Y-55181034D01*
X170373513Y-54901111D01*
X170402185Y-54610000D01*
X170373513Y-54318889D01*
X170288599Y-54038966D01*
X170150706Y-53780986D01*
X169965134Y-53554866D01*
X169739014Y-53369294D01*
X169481034Y-53231401D01*
X169201111Y-53146487D01*
X168982950Y-53125000D01*
X168837050Y-53125000D01*
X168618889Y-53146487D01*
X168338966Y-53231401D01*
X168080986Y-53369294D01*
X167854866Y-53554866D01*
X167669294Y-53780986D01*
X167634799Y-53845523D01*
X167565178Y-53728645D01*
X167370269Y-53512412D01*
X167136920Y-53338359D01*
X166874099Y-53213175D01*
X166726890Y-53168524D01*
X166497000Y-53289845D01*
X166243000Y-53289845D01*
X166013110Y-53168524D01*
X165865901Y-53213175D01*
X165603080Y-53338359D01*
X165369731Y-53512412D01*
X165174822Y-53728645D01*
X165105201Y-53845523D01*
X165070706Y-53780986D01*
X164885134Y-53554866D01*
X164659014Y-53369294D01*
X164401034Y-53231401D01*
X164121111Y-53146487D01*
X163902950Y-53125000D01*
X163757050Y-53125000D01*
X163538889Y-53146487D01*
X163258966Y-53231401D01*
X163000986Y-53369294D01*
X162774866Y-53554866D01*
X162750393Y-53584687D01*
X162729502Y-53515820D01*
X162670537Y-53405506D01*
X162591185Y-53308815D01*
X162494494Y-53229463D01*
X162384180Y-53170498D01*
X162264482Y-53134188D01*
X162140000Y-53121928D01*
X160440000Y-53121928D01*
X160315518Y-53134188D01*
X160195820Y-53170498D01*
X160085506Y-53229463D01*
X159988815Y-53308815D01*
X159909463Y-53405506D01*
X159850498Y-53515820D01*
X159814188Y-53635518D01*
X159801928Y-53760000D01*
X150078072Y-53760000D01*
X150065812Y-53635518D01*
X150029502Y-53515820D01*
X149970537Y-53405506D01*
X149891185Y-53308815D01*
X149794494Y-53229463D01*
X149684180Y-53170498D01*
X149564482Y-53134188D01*
X149440000Y-53121928D01*
X147740000Y-53121928D01*
X147615518Y-53134188D01*
X147495820Y-53170498D01*
X147385506Y-53229463D01*
X147288815Y-53308815D01*
X147209463Y-53405506D01*
X147150498Y-53515820D01*
X147129607Y-53584687D01*
X147105134Y-53554866D01*
X146879014Y-53369294D01*
X146621034Y-53231401D01*
X146341111Y-53146487D01*
X146122950Y-53125000D01*
X145977050Y-53125000D01*
X145758889Y-53146487D01*
X145478966Y-53231401D01*
X145220986Y-53369294D01*
X144994866Y-53554866D01*
X144809294Y-53780986D01*
X144780000Y-53835791D01*
X144750706Y-53780986D01*
X144565134Y-53554866D01*
X144339014Y-53369294D01*
X144081034Y-53231401D01*
X143801111Y-53146487D01*
X143582950Y-53125000D01*
X143437050Y-53125000D01*
X143218889Y-53146487D01*
X142938966Y-53231401D01*
X142680986Y-53369294D01*
X142454866Y-53554866D01*
X142269294Y-53780986D01*
X142240000Y-53835791D01*
X142210706Y-53780986D01*
X142025134Y-53554866D01*
X141799014Y-53369294D01*
X141541034Y-53231401D01*
X141261111Y-53146487D01*
X141042950Y-53125000D01*
X140897050Y-53125000D01*
X140678889Y-53146487D01*
X140398966Y-53231401D01*
X140140986Y-53369294D01*
X139914866Y-53554866D01*
X139729294Y-53780986D01*
X139700000Y-53835791D01*
X139670706Y-53780986D01*
X139485134Y-53554866D01*
X139259014Y-53369294D01*
X139001034Y-53231401D01*
X138721111Y-53146487D01*
X138502950Y-53125000D01*
X138357050Y-53125000D01*
X138138889Y-53146487D01*
X137858966Y-53231401D01*
X137600986Y-53369294D01*
X137374866Y-53554866D01*
X137189294Y-53780986D01*
X137160000Y-53835791D01*
X137130706Y-53780986D01*
X136945134Y-53554866D01*
X136719014Y-53369294D01*
X136461034Y-53231401D01*
X136181111Y-53146487D01*
X135962950Y-53125000D01*
X135817050Y-53125000D01*
X135598889Y-53146487D01*
X135318966Y-53231401D01*
X135060986Y-53369294D01*
X134834866Y-53554866D01*
X134649294Y-53780986D01*
X134620000Y-53835791D01*
X134590706Y-53780986D01*
X134405134Y-53554866D01*
X134179014Y-53369294D01*
X133921034Y-53231401D01*
X133641111Y-53146487D01*
X133422950Y-53125000D01*
X133277050Y-53125000D01*
X133058889Y-53146487D01*
X132778966Y-53231401D01*
X132520986Y-53369294D01*
X132294866Y-53554866D01*
X132109294Y-53780986D01*
X132074799Y-53845523D01*
X132005178Y-53728645D01*
X131810269Y-53512412D01*
X131576920Y-53338359D01*
X131314099Y-53213175D01*
X131166890Y-53168524D01*
X130937000Y-53289845D01*
X130683000Y-53289845D01*
X130453110Y-53168524D01*
X130305901Y-53213175D01*
X130043080Y-53338359D01*
X129809731Y-53512412D01*
X129614822Y-53728645D01*
X129465843Y-53978748D01*
X129368519Y-54253109D01*
X97917000Y-54253109D01*
X97917000Y-53139254D01*
X98040393Y-53289608D01*
X98258900Y-53468932D01*
X98508193Y-53602182D01*
X98778692Y-53684236D01*
X99060000Y-53711943D01*
X99341309Y-53684236D01*
X99611808Y-53602182D01*
X99861101Y-53468932D01*
X100079608Y-53289608D01*
X100258932Y-53071101D01*
X100330000Y-52938142D01*
X100401068Y-53071101D01*
X100580393Y-53289608D01*
X100798900Y-53468932D01*
X101048193Y-53602182D01*
X101318692Y-53684236D01*
X101600000Y-53711943D01*
X101881309Y-53684236D01*
X102151808Y-53602182D01*
X102401101Y-53468932D01*
X102619608Y-53289608D01*
X102798932Y-53071101D01*
X102870000Y-52938142D01*
X102941068Y-53071101D01*
X103120393Y-53289608D01*
X103338900Y-53468932D01*
X103588193Y-53602182D01*
X103858692Y-53684236D01*
X104140000Y-53711943D01*
X104421309Y-53684236D01*
X104691808Y-53602182D01*
X104941101Y-53468932D01*
X105159608Y-53289608D01*
X105338932Y-53071101D01*
X105410000Y-52938142D01*
X105481068Y-53071101D01*
X105660393Y-53289608D01*
X105878900Y-53468932D01*
X106128193Y-53602182D01*
X106398692Y-53684236D01*
X106680000Y-53711943D01*
X106961309Y-53684236D01*
X107231808Y-53602182D01*
X107481101Y-53468932D01*
X107699608Y-53289608D01*
X107878932Y-53071101D01*
X107950000Y-52938142D01*
X108021068Y-53071101D01*
X108200393Y-53289608D01*
X108418900Y-53468932D01*
X108668193Y-53602182D01*
X108938692Y-53684236D01*
X109220000Y-53711943D01*
X109501309Y-53684236D01*
X109771808Y-53602182D01*
X110021101Y-53468932D01*
X110239608Y-53289608D01*
X110418932Y-53071101D01*
X110490000Y-52938142D01*
X110561068Y-53071101D01*
X110740393Y-53289608D01*
X110958900Y-53468932D01*
X111208193Y-53602182D01*
X111478692Y-53684236D01*
X111760000Y-53711943D01*
X112041309Y-53684236D01*
X112311808Y-53602182D01*
X112561101Y-53468932D01*
X112779608Y-53289608D01*
X112958932Y-53071101D01*
X113092182Y-52821807D01*
X113174236Y-52551308D01*
X113195000Y-52340491D01*
X113195000Y-51799508D01*
X113174236Y-51588691D01*
X113092182Y-51318192D01*
X112958932Y-51068899D01*
X112779607Y-50850392D01*
X112561100Y-50671068D01*
X112311807Y-50537818D01*
X112041308Y-50455764D01*
X111760000Y-50428057D01*
X111478691Y-50455764D01*
X111208192Y-50537818D01*
X110958899Y-50671068D01*
X110740392Y-50850393D01*
X110561068Y-51068900D01*
X110490000Y-51201858D01*
X110418932Y-51068899D01*
X110239607Y-50850392D01*
X110021100Y-50671068D01*
X109771807Y-50537818D01*
X109501308Y-50455764D01*
X109220000Y-50428057D01*
X108938691Y-50455764D01*
X108668192Y-50537818D01*
X108418899Y-50671068D01*
X108200392Y-50850393D01*
X108021068Y-51068900D01*
X107950000Y-51201858D01*
X107878932Y-51068899D01*
X107699607Y-50850392D01*
X107481100Y-50671068D01*
X107231807Y-50537818D01*
X106961308Y-50455764D01*
X106680000Y-50428057D01*
X106398691Y-50455764D01*
X106128192Y-50537818D01*
X105878899Y-50671068D01*
X105660392Y-50850393D01*
X105481068Y-51068900D01*
X105410000Y-51201858D01*
X105338932Y-51068899D01*
X105159607Y-50850392D01*
X104941100Y-50671068D01*
X104691807Y-50537818D01*
X104421308Y-50455764D01*
X104140000Y-50428057D01*
X103858691Y-50455764D01*
X103588192Y-50537818D01*
X103338899Y-50671068D01*
X103120392Y-50850393D01*
X102941068Y-51068900D01*
X102870000Y-51201858D01*
X102798932Y-51068899D01*
X102619607Y-50850392D01*
X102401100Y-50671068D01*
X102151807Y-50537818D01*
X101881308Y-50455764D01*
X101600000Y-50428057D01*
X101318691Y-50455764D01*
X101048192Y-50537818D01*
X100798899Y-50671068D01*
X100580392Y-50850393D01*
X100401068Y-51068900D01*
X100330000Y-51201858D01*
X100258932Y-51068899D01*
X100079607Y-50850392D01*
X99861100Y-50671068D01*
X99611807Y-50537818D01*
X99341308Y-50455764D01*
X99060000Y-50428057D01*
X98778691Y-50455764D01*
X98508192Y-50537818D01*
X98258899Y-50671068D01*
X98040392Y-50850393D01*
X97917000Y-51000747D01*
X97917000Y-45578665D01*
X121755000Y-45578665D01*
X121755000Y-45861335D01*
X121810147Y-46138574D01*
X121918320Y-46399727D01*
X122075363Y-46634759D01*
X122275241Y-46834637D01*
X122510273Y-46991680D01*
X122771426Y-47099853D01*
X123048665Y-47155000D01*
X123331335Y-47155000D01*
X123608574Y-47099853D01*
X123869727Y-46991680D01*
X124104759Y-46834637D01*
X124304637Y-46634759D01*
X124461680Y-46399727D01*
X124569853Y-46138574D01*
X124625000Y-45861335D01*
X124625000Y-45720000D01*
X131908057Y-45720000D01*
X131935764Y-46001309D01*
X132017818Y-46271808D01*
X132151068Y-46521101D01*
X132330392Y-46739608D01*
X132548899Y-46918932D01*
X132798192Y-47052182D01*
X133068691Y-47134236D01*
X133279508Y-47155000D01*
X133420492Y-47155000D01*
X133631309Y-47134236D01*
X133901808Y-47052182D01*
X134151101Y-46918932D01*
X134369608Y-46739608D01*
X134548932Y-46521101D01*
X134549783Y-46519508D01*
X140805000Y-46519508D01*
X140805000Y-47460491D01*
X140825764Y-47671308D01*
X140907818Y-47941807D01*
X141041068Y-48191100D01*
X141220392Y-48409607D01*
X141438899Y-48588932D01*
X141688192Y-48722182D01*
X141958691Y-48804236D01*
X142240000Y-48831943D01*
X142521308Y-48804236D01*
X142791807Y-48722182D01*
X143041100Y-48588932D01*
X143259607Y-48409608D01*
X143438932Y-48191101D01*
X143510000Y-48058142D01*
X143581068Y-48191100D01*
X143760392Y-48409607D01*
X143978899Y-48588932D01*
X144228192Y-48722182D01*
X144498691Y-48804236D01*
X144780000Y-48831943D01*
X145061308Y-48804236D01*
X145331807Y-48722182D01*
X145581100Y-48588932D01*
X145799607Y-48409608D01*
X145978932Y-48191101D01*
X146050000Y-48058142D01*
X146121068Y-48191100D01*
X146300392Y-48409607D01*
X146518899Y-48588932D01*
X146768192Y-48722182D01*
X147038691Y-48804236D01*
X147320000Y-48831943D01*
X147601308Y-48804236D01*
X147871807Y-48722182D01*
X148121100Y-48588932D01*
X148339607Y-48409608D01*
X148518932Y-48191101D01*
X148590000Y-48058142D01*
X148661068Y-48191100D01*
X148840392Y-48409607D01*
X149058899Y-48588932D01*
X149308192Y-48722182D01*
X149578691Y-48804236D01*
X149860000Y-48831943D01*
X150141308Y-48804236D01*
X150411807Y-48722182D01*
X150661100Y-48588932D01*
X150879607Y-48409608D01*
X151058932Y-48191101D01*
X151192182Y-47941808D01*
X151274236Y-47671309D01*
X151295000Y-47460492D01*
X151295000Y-46519509D01*
X151274236Y-46308691D01*
X151192182Y-46038192D01*
X151058932Y-45788899D01*
X150879608Y-45570392D01*
X150661101Y-45391068D01*
X150411808Y-45257818D01*
X150141309Y-45175764D01*
X149860000Y-45148057D01*
X149578692Y-45175764D01*
X149308193Y-45257818D01*
X149058900Y-45391068D01*
X148840393Y-45570392D01*
X148661068Y-45788899D01*
X148590000Y-45921858D01*
X148518932Y-45788899D01*
X148339608Y-45570392D01*
X148121101Y-45391068D01*
X147871808Y-45257818D01*
X147601309Y-45175764D01*
X147320000Y-45148057D01*
X147038692Y-45175764D01*
X146768193Y-45257818D01*
X146518900Y-45391068D01*
X146300393Y-45570392D01*
X146121068Y-45788899D01*
X146050000Y-45921858D01*
X145978932Y-45788899D01*
X145799608Y-45570392D01*
X145581101Y-45391068D01*
X145331808Y-45257818D01*
X145061309Y-45175764D01*
X144780000Y-45148057D01*
X144498692Y-45175764D01*
X144228193Y-45257818D01*
X143978900Y-45391068D01*
X143760393Y-45570392D01*
X143581068Y-45788899D01*
X143510000Y-45921858D01*
X143438932Y-45788899D01*
X143259608Y-45570392D01*
X143041101Y-45391068D01*
X142791808Y-45257818D01*
X142521309Y-45175764D01*
X142240000Y-45148057D01*
X141958692Y-45175764D01*
X141688193Y-45257818D01*
X141438900Y-45391068D01*
X141220393Y-45570392D01*
X141041068Y-45788899D01*
X140907818Y-46038192D01*
X140825764Y-46308691D01*
X140805000Y-46519508D01*
X134549783Y-46519508D01*
X134682182Y-46271808D01*
X134764236Y-46001309D01*
X134791943Y-45720000D01*
X134764236Y-45438691D01*
X134682182Y-45168192D01*
X134548932Y-44918899D01*
X134369608Y-44700392D01*
X134151101Y-44521068D01*
X133901808Y-44387818D01*
X133631309Y-44305764D01*
X133420492Y-44285000D01*
X133279508Y-44285000D01*
X133068691Y-44305764D01*
X132798192Y-44387818D01*
X132548899Y-44521068D01*
X132330392Y-44700392D01*
X132151068Y-44918899D01*
X132017818Y-45168192D01*
X131935764Y-45438691D01*
X131908057Y-45720000D01*
X124625000Y-45720000D01*
X124625000Y-45578665D01*
X124569853Y-45301426D01*
X124461680Y-45040273D01*
X124304637Y-44805241D01*
X124104759Y-44605363D01*
X123869727Y-44448320D01*
X123608574Y-44340147D01*
X123331335Y-44285000D01*
X123048665Y-44285000D01*
X122771426Y-44340147D01*
X122510273Y-44448320D01*
X122275241Y-44605363D01*
X122075363Y-44805241D01*
X121918320Y-45040273D01*
X121810147Y-45301426D01*
X121755000Y-45578665D01*
X97917000Y-45578665D01*
X97917000Y-41768665D01*
X121755000Y-41768665D01*
X121755000Y-42051335D01*
X121810147Y-42328574D01*
X121918320Y-42589727D01*
X122075363Y-42824759D01*
X122275241Y-43024637D01*
X122510273Y-43181680D01*
X122771426Y-43289853D01*
X123048665Y-43345000D01*
X123331335Y-43345000D01*
X123608574Y-43289853D01*
X123869727Y-43181680D01*
X124104759Y-43024637D01*
X124304637Y-42824759D01*
X124461680Y-42589727D01*
X124569853Y-42328574D01*
X124625000Y-42051335D01*
X124625000Y-41910000D01*
X131908057Y-41910000D01*
X131935764Y-42191309D01*
X132017818Y-42461808D01*
X132151068Y-42711101D01*
X132330392Y-42929608D01*
X132548899Y-43108932D01*
X132798192Y-43242182D01*
X133068691Y-43324236D01*
X133279508Y-43345000D01*
X133420492Y-43345000D01*
X133631309Y-43324236D01*
X133901808Y-43242182D01*
X134151101Y-43108932D01*
X134369608Y-42929608D01*
X134548932Y-42711101D01*
X134682182Y-42461808D01*
X134764236Y-42191309D01*
X134791943Y-41910000D01*
X151755783Y-41910000D01*
X151792564Y-42283445D01*
X151901494Y-42642539D01*
X152078387Y-42973482D01*
X152316444Y-43263556D01*
X152606518Y-43501613D01*
X152937461Y-43678506D01*
X153296555Y-43787436D01*
X153576418Y-43815000D01*
X163923582Y-43815000D01*
X164203445Y-43787436D01*
X164562539Y-43678506D01*
X164893482Y-43501613D01*
X165183556Y-43263556D01*
X165421613Y-42973482D01*
X165598506Y-42642539D01*
X165707436Y-42283445D01*
X165744217Y-41910000D01*
X165707436Y-41536555D01*
X165598506Y-41177461D01*
X165421613Y-40846518D01*
X165183556Y-40556444D01*
X164893482Y-40318387D01*
X164562539Y-40141494D01*
X164203445Y-40032564D01*
X163923582Y-40005000D01*
X153576418Y-40005000D01*
X153296555Y-40032564D01*
X152937461Y-40141494D01*
X152606518Y-40318387D01*
X152316444Y-40556444D01*
X152078387Y-40846518D01*
X151901494Y-41177461D01*
X151792564Y-41536555D01*
X151755783Y-41910000D01*
X134791943Y-41910000D01*
X134764236Y-41628691D01*
X134682182Y-41358192D01*
X134548932Y-41108899D01*
X134369608Y-40890392D01*
X134151101Y-40711068D01*
X133901808Y-40577818D01*
X133631309Y-40495764D01*
X133420492Y-40475000D01*
X133279508Y-40475000D01*
X133068691Y-40495764D01*
X132798192Y-40577818D01*
X132548899Y-40711068D01*
X132330392Y-40890392D01*
X132151068Y-41108899D01*
X132017818Y-41358192D01*
X131935764Y-41628691D01*
X131908057Y-41910000D01*
X124625000Y-41910000D01*
X124625000Y-41768665D01*
X124569853Y-41491426D01*
X124461680Y-41230273D01*
X124304637Y-40995241D01*
X124104759Y-40795363D01*
X123869727Y-40638320D01*
X123608574Y-40530147D01*
X123331335Y-40475000D01*
X123048665Y-40475000D01*
X122771426Y-40530147D01*
X122510273Y-40638320D01*
X122275241Y-40795363D01*
X122075363Y-40995241D01*
X121918320Y-41230273D01*
X121810147Y-41491426D01*
X121755000Y-41768665D01*
X97917000Y-41768665D01*
X97917000Y-38899508D01*
X140805000Y-38899508D01*
X140805000Y-39840491D01*
X140825764Y-40051308D01*
X140907818Y-40321807D01*
X141041068Y-40571100D01*
X141220392Y-40789607D01*
X141438899Y-40968932D01*
X141688192Y-41102182D01*
X141958691Y-41184236D01*
X142240000Y-41211943D01*
X142521308Y-41184236D01*
X142791807Y-41102182D01*
X143041100Y-40968932D01*
X143259607Y-40789608D01*
X143438932Y-40571101D01*
X143510000Y-40438142D01*
X143581068Y-40571100D01*
X143760392Y-40789607D01*
X143978899Y-40968932D01*
X144228192Y-41102182D01*
X144498691Y-41184236D01*
X144780000Y-41211943D01*
X145061308Y-41184236D01*
X145331807Y-41102182D01*
X145581100Y-40968932D01*
X145799607Y-40789608D01*
X145978932Y-40571101D01*
X146050000Y-40438142D01*
X146121068Y-40571100D01*
X146300392Y-40789607D01*
X146518899Y-40968932D01*
X146768192Y-41102182D01*
X147038691Y-41184236D01*
X147320000Y-41211943D01*
X147601308Y-41184236D01*
X147871807Y-41102182D01*
X148121100Y-40968932D01*
X148339607Y-40789608D01*
X148432419Y-40676517D01*
X148434188Y-40694482D01*
X148470498Y-40814180D01*
X148529463Y-40924494D01*
X148608815Y-41021185D01*
X148705506Y-41100537D01*
X148815820Y-41159502D01*
X148935518Y-41195812D01*
X149060000Y-41208072D01*
X150660000Y-41208072D01*
X150784482Y-41195812D01*
X150904180Y-41159502D01*
X151014494Y-41100537D01*
X151111185Y-41021185D01*
X151190537Y-40924494D01*
X151249502Y-40814180D01*
X151285812Y-40694482D01*
X151298072Y-40570000D01*
X151298072Y-38170000D01*
X151285812Y-38045518D01*
X151249502Y-37925820D01*
X151190537Y-37815506D01*
X151111185Y-37718815D01*
X151014494Y-37639463D01*
X150904180Y-37580498D01*
X150784482Y-37544188D01*
X150660000Y-37531928D01*
X149060000Y-37531928D01*
X148935518Y-37544188D01*
X148815820Y-37580498D01*
X148705506Y-37639463D01*
X148608815Y-37718815D01*
X148529463Y-37815506D01*
X148470498Y-37925820D01*
X148434188Y-38045518D01*
X148432419Y-38063482D01*
X148339608Y-37950392D01*
X148121101Y-37771068D01*
X147871808Y-37637818D01*
X147601309Y-37555764D01*
X147320000Y-37528057D01*
X147038692Y-37555764D01*
X146768193Y-37637818D01*
X146518900Y-37771068D01*
X146300393Y-37950392D01*
X146121068Y-38168899D01*
X146050000Y-38301858D01*
X145978932Y-38168899D01*
X145799608Y-37950392D01*
X145581101Y-37771068D01*
X145331808Y-37637818D01*
X145061309Y-37555764D01*
X144780000Y-37528057D01*
X144498692Y-37555764D01*
X144228193Y-37637818D01*
X143978900Y-37771068D01*
X143760393Y-37950392D01*
X143581068Y-38168899D01*
X143510000Y-38301858D01*
X143438932Y-38168899D01*
X143259608Y-37950392D01*
X143041101Y-37771068D01*
X142791808Y-37637818D01*
X142521309Y-37555764D01*
X142240000Y-37528057D01*
X141958692Y-37555764D01*
X141688193Y-37637818D01*
X141438900Y-37771068D01*
X141220393Y-37950392D01*
X141041068Y-38168899D01*
X140907818Y-38418192D01*
X140825764Y-38688691D01*
X140805000Y-38899508D01*
X97917000Y-38899508D01*
X97917000Y-37179039D01*
X122668096Y-37179039D01*
X122685633Y-37261818D01*
X122796285Y-37521646D01*
X122955500Y-37754895D01*
X123157161Y-37952601D01*
X123393517Y-38107166D01*
X123655486Y-38212650D01*
X123933000Y-38265000D01*
X124333000Y-38265000D01*
X124333000Y-36957000D01*
X124587000Y-36957000D01*
X124587000Y-38265000D01*
X124987000Y-38265000D01*
X125264514Y-38212650D01*
X125526483Y-38107166D01*
X125762839Y-37952601D01*
X125964500Y-37754895D01*
X126123715Y-37521646D01*
X126234367Y-37261818D01*
X126251904Y-37179039D01*
X126129915Y-36957000D01*
X124587000Y-36957000D01*
X124333000Y-36957000D01*
X122790085Y-36957000D01*
X122668096Y-37179039D01*
X97917000Y-37179039D01*
X97917000Y-31750000D01*
X122618057Y-31750000D01*
X122645764Y-32031309D01*
X122727818Y-32301808D01*
X122861068Y-32551101D01*
X123040392Y-32769608D01*
X123258899Y-32948932D01*
X123391858Y-33020000D01*
X123258899Y-33091068D01*
X123040392Y-33270392D01*
X122861068Y-33488899D01*
X122727818Y-33738192D01*
X122645764Y-34008691D01*
X122618057Y-34290000D01*
X122645764Y-34571309D01*
X122727818Y-34841808D01*
X122861068Y-35091101D01*
X123040392Y-35309608D01*
X123258899Y-35488932D01*
X123386741Y-35557265D01*
X123157161Y-35707399D01*
X122955500Y-35905105D01*
X122796285Y-36138354D01*
X122685633Y-36398182D01*
X122668096Y-36480961D01*
X122790085Y-36703000D01*
X124333000Y-36703000D01*
X124333000Y-36683000D01*
X124587000Y-36683000D01*
X124587000Y-36703000D01*
X126129915Y-36703000D01*
X126251904Y-36480961D01*
X126234367Y-36398182D01*
X126123715Y-36138354D01*
X125964500Y-35905105D01*
X125762839Y-35707399D01*
X125533259Y-35557265D01*
X125661101Y-35488932D01*
X125879608Y-35309608D01*
X126058932Y-35091101D01*
X126192182Y-34841808D01*
X126274236Y-34571309D01*
X126301943Y-34290000D01*
X126274236Y-34008691D01*
X126192182Y-33738192D01*
X126058932Y-33488899D01*
X125879608Y-33270392D01*
X125661101Y-33091068D01*
X125528142Y-33020000D01*
X125661101Y-32948932D01*
X125879608Y-32769608D01*
X126058932Y-32551101D01*
X126192182Y-32301808D01*
X126274236Y-32031309D01*
X126301943Y-31750000D01*
X126274236Y-31468691D01*
X126192182Y-31198192D01*
X126058932Y-30948899D01*
X125879608Y-30730392D01*
X125661101Y-30551068D01*
X125533259Y-30482735D01*
X125762839Y-30332601D01*
X125964500Y-30134895D01*
X126123715Y-29901646D01*
X126234367Y-29641818D01*
X126251904Y-29559039D01*
X126129916Y-29337002D01*
X126295000Y-29337002D01*
X126295000Y-29210000D01*
X130238057Y-29210000D01*
X130265764Y-29491309D01*
X130347818Y-29761808D01*
X130481068Y-30011101D01*
X130660392Y-30229608D01*
X130878899Y-30408932D01*
X131011858Y-30480000D01*
X130878899Y-30551068D01*
X130660392Y-30730392D01*
X130481068Y-30948899D01*
X130347818Y-31198192D01*
X130265764Y-31468691D01*
X130238057Y-31750000D01*
X130265764Y-32031309D01*
X130347818Y-32301808D01*
X130481068Y-32551101D01*
X130660392Y-32769608D01*
X130878899Y-32948932D01*
X131011858Y-33020000D01*
X130878899Y-33091068D01*
X130660392Y-33270392D01*
X130481068Y-33488899D01*
X130347818Y-33738192D01*
X130265764Y-34008691D01*
X130238057Y-34290000D01*
X130265764Y-34571309D01*
X130347818Y-34841808D01*
X130481068Y-35091101D01*
X130660392Y-35309608D01*
X130773482Y-35402419D01*
X130755518Y-35404188D01*
X130635820Y-35440498D01*
X130525506Y-35499463D01*
X130428815Y-35578815D01*
X130349463Y-35675506D01*
X130290498Y-35785820D01*
X130254188Y-35905518D01*
X130241928Y-36030000D01*
X130241928Y-37630000D01*
X130254188Y-37754482D01*
X130290498Y-37874180D01*
X130349463Y-37984494D01*
X130428815Y-38081185D01*
X130525506Y-38160537D01*
X130635820Y-38219502D01*
X130755518Y-38255812D01*
X130880000Y-38268072D01*
X133280000Y-38268072D01*
X133404482Y-38255812D01*
X133524180Y-38219502D01*
X133634494Y-38160537D01*
X133731185Y-38081185D01*
X133810537Y-37984494D01*
X133869502Y-37874180D01*
X133905812Y-37754482D01*
X133918072Y-37630000D01*
X133918072Y-36030000D01*
X133905812Y-35905518D01*
X133869502Y-35785820D01*
X133810537Y-35675506D01*
X133731185Y-35578815D01*
X133634494Y-35499463D01*
X133524180Y-35440498D01*
X133404482Y-35404188D01*
X133386518Y-35402419D01*
X133499608Y-35309608D01*
X133678932Y-35091101D01*
X133812182Y-34841808D01*
X133894236Y-34571309D01*
X133921943Y-34290000D01*
X133894236Y-34008691D01*
X133812182Y-33738192D01*
X133678932Y-33488899D01*
X133499608Y-33270392D01*
X133281101Y-33091068D01*
X133148142Y-33020000D01*
X134448057Y-33020000D01*
X134475764Y-33301309D01*
X134557818Y-33571808D01*
X134691068Y-33821101D01*
X134870392Y-34039608D01*
X135088899Y-34218932D01*
X135338192Y-34352182D01*
X135608691Y-34434236D01*
X135819508Y-34455000D01*
X135960492Y-34455000D01*
X136171309Y-34434236D01*
X136441808Y-34352182D01*
X136691101Y-34218932D01*
X136909608Y-34039608D01*
X137088932Y-33821101D01*
X137222182Y-33571808D01*
X137304236Y-33301309D01*
X137331943Y-33020000D01*
X137304236Y-32738691D01*
X137222182Y-32468192D01*
X137089521Y-32220000D01*
X142071928Y-32220000D01*
X142071928Y-33820000D01*
X142084188Y-33944482D01*
X142120498Y-34064180D01*
X142179463Y-34174494D01*
X142258815Y-34271185D01*
X142355506Y-34350537D01*
X142465820Y-34409502D01*
X142585518Y-34445812D01*
X142710000Y-34458072D01*
X144310000Y-34458072D01*
X144434482Y-34445812D01*
X144554180Y-34409502D01*
X144664494Y-34350537D01*
X144761185Y-34271185D01*
X144840537Y-34174494D01*
X144899502Y-34064180D01*
X144935812Y-33944482D01*
X144948072Y-33820000D01*
X144948072Y-32878665D01*
X145885000Y-32878665D01*
X145885000Y-33161335D01*
X145940147Y-33438574D01*
X146048320Y-33699727D01*
X146205363Y-33934759D01*
X146405241Y-34134637D01*
X146640273Y-34291680D01*
X146901426Y-34399853D01*
X147178665Y-34455000D01*
X147461335Y-34455000D01*
X147738574Y-34399853D01*
X147999727Y-34291680D01*
X148234759Y-34134637D01*
X148434637Y-33934759D01*
X148591680Y-33699727D01*
X148699853Y-33438574D01*
X148755000Y-33161335D01*
X148755000Y-33020000D01*
X156038057Y-33020000D01*
X156065764Y-33301309D01*
X156147818Y-33571808D01*
X156281068Y-33821101D01*
X156460392Y-34039608D01*
X156678899Y-34218932D01*
X156928192Y-34352182D01*
X157198691Y-34434236D01*
X157409508Y-34455000D01*
X157550492Y-34455000D01*
X157761309Y-34434236D01*
X158031808Y-34352182D01*
X158281101Y-34218932D01*
X158499608Y-34039608D01*
X158678932Y-33821101D01*
X158812182Y-33571808D01*
X158894236Y-33301309D01*
X158921943Y-33020000D01*
X158894236Y-32738691D01*
X158812182Y-32468192D01*
X158678932Y-32218899D01*
X158499608Y-32000392D01*
X158281101Y-31821068D01*
X158031808Y-31687818D01*
X157761309Y-31605764D01*
X157550492Y-31585000D01*
X157409508Y-31585000D01*
X157198691Y-31605764D01*
X156928192Y-31687818D01*
X156678899Y-31821068D01*
X156460392Y-32000392D01*
X156281068Y-32218899D01*
X156147818Y-32468192D01*
X156065764Y-32738691D01*
X156038057Y-33020000D01*
X148755000Y-33020000D01*
X148755000Y-32878665D01*
X148699853Y-32601426D01*
X148591680Y-32340273D01*
X148434637Y-32105241D01*
X148234759Y-31905363D01*
X147999727Y-31748320D01*
X147738574Y-31640147D01*
X147461335Y-31585000D01*
X147178665Y-31585000D01*
X146901426Y-31640147D01*
X146640273Y-31748320D01*
X146405241Y-31905363D01*
X146205363Y-32105241D01*
X146048320Y-32340273D01*
X145940147Y-32601426D01*
X145885000Y-32878665D01*
X144948072Y-32878665D01*
X144948072Y-32220000D01*
X144935812Y-32095518D01*
X144899502Y-31975820D01*
X144840537Y-31865506D01*
X144761185Y-31768815D01*
X144664494Y-31689463D01*
X144554180Y-31630498D01*
X144434482Y-31594188D01*
X144310000Y-31581928D01*
X142710000Y-31581928D01*
X142585518Y-31594188D01*
X142465820Y-31630498D01*
X142355506Y-31689463D01*
X142258815Y-31768815D01*
X142179463Y-31865506D01*
X142120498Y-31975820D01*
X142084188Y-32095518D01*
X142071928Y-32220000D01*
X137089521Y-32220000D01*
X137088932Y-32218899D01*
X136909608Y-32000392D01*
X136691101Y-31821068D01*
X136441808Y-31687818D01*
X136171309Y-31605764D01*
X135960492Y-31585000D01*
X135819508Y-31585000D01*
X135608691Y-31605764D01*
X135338192Y-31687818D01*
X135088899Y-31821068D01*
X134870392Y-32000392D01*
X134691068Y-32218899D01*
X134557818Y-32468192D01*
X134475764Y-32738691D01*
X134448057Y-33020000D01*
X133148142Y-33020000D01*
X133281101Y-32948932D01*
X133499608Y-32769608D01*
X133678932Y-32551101D01*
X133812182Y-32301808D01*
X133894236Y-32031309D01*
X133921943Y-31750000D01*
X133894236Y-31468691D01*
X133812182Y-31198192D01*
X133678932Y-30948899D01*
X133499608Y-30730392D01*
X133281101Y-30551068D01*
X133148142Y-30480000D01*
X133281101Y-30408932D01*
X133499608Y-30229608D01*
X133678932Y-30011101D01*
X133812182Y-29761808D01*
X133894236Y-29491309D01*
X133921943Y-29210000D01*
X134448057Y-29210000D01*
X134475764Y-29491309D01*
X134557818Y-29761808D01*
X134691068Y-30011101D01*
X134870392Y-30229608D01*
X135088899Y-30408932D01*
X135338192Y-30542182D01*
X135608691Y-30624236D01*
X135819508Y-30645000D01*
X135960492Y-30645000D01*
X136171309Y-30624236D01*
X136441808Y-30542182D01*
X136691101Y-30408932D01*
X136909608Y-30229608D01*
X137088932Y-30011101D01*
X137222182Y-29761808D01*
X137304236Y-29491309D01*
X137331943Y-29210000D01*
X137304236Y-28928691D01*
X137222182Y-28658192D01*
X137089521Y-28410000D01*
X142071928Y-28410000D01*
X142071928Y-30010000D01*
X142084188Y-30134482D01*
X142120498Y-30254180D01*
X142179463Y-30364494D01*
X142258815Y-30461185D01*
X142355506Y-30540537D01*
X142465820Y-30599502D01*
X142585518Y-30635812D01*
X142710000Y-30648072D01*
X144310000Y-30648072D01*
X144434482Y-30635812D01*
X144554180Y-30599502D01*
X144664494Y-30540537D01*
X144761185Y-30461185D01*
X144840537Y-30364494D01*
X144899502Y-30254180D01*
X144935812Y-30134482D01*
X144948072Y-30010000D01*
X144948072Y-29068665D01*
X145885000Y-29068665D01*
X145885000Y-29351335D01*
X145940147Y-29628574D01*
X146048320Y-29889727D01*
X146205363Y-30124759D01*
X146405241Y-30324637D01*
X146640273Y-30481680D01*
X146901426Y-30589853D01*
X147178665Y-30645000D01*
X147461335Y-30645000D01*
X147738574Y-30589853D01*
X147999727Y-30481680D01*
X148234759Y-30324637D01*
X148434637Y-30124759D01*
X148591680Y-29889727D01*
X148699853Y-29628574D01*
X148755000Y-29351335D01*
X148755000Y-29210000D01*
X156038057Y-29210000D01*
X156065764Y-29491309D01*
X156147818Y-29761808D01*
X156281068Y-30011101D01*
X156460392Y-30229608D01*
X156678899Y-30408932D01*
X156928192Y-30542182D01*
X157198691Y-30624236D01*
X157409508Y-30645000D01*
X157550492Y-30645000D01*
X157761309Y-30624236D01*
X158031808Y-30542182D01*
X158281101Y-30408932D01*
X158499608Y-30229608D01*
X158678932Y-30011101D01*
X158812182Y-29761808D01*
X158894236Y-29491309D01*
X158921943Y-29210000D01*
X158894236Y-28928691D01*
X158812182Y-28658192D01*
X158678932Y-28408899D01*
X158499608Y-28190392D01*
X158281101Y-28011068D01*
X158031808Y-27877818D01*
X157761309Y-27795764D01*
X157550492Y-27775000D01*
X157409508Y-27775000D01*
X157198691Y-27795764D01*
X156928192Y-27877818D01*
X156678899Y-28011068D01*
X156460392Y-28190392D01*
X156281068Y-28408899D01*
X156147818Y-28658192D01*
X156065764Y-28928691D01*
X156038057Y-29210000D01*
X148755000Y-29210000D01*
X148755000Y-29068665D01*
X148699853Y-28791426D01*
X148591680Y-28530273D01*
X148434637Y-28295241D01*
X148234759Y-28095363D01*
X147999727Y-27938320D01*
X147738574Y-27830147D01*
X147461335Y-27775000D01*
X147178665Y-27775000D01*
X146901426Y-27830147D01*
X146640273Y-27938320D01*
X146405241Y-28095363D01*
X146205363Y-28295241D01*
X146048320Y-28530273D01*
X145940147Y-28791426D01*
X145885000Y-29068665D01*
X144948072Y-29068665D01*
X144948072Y-28410000D01*
X144935812Y-28285518D01*
X144899502Y-28165820D01*
X144840537Y-28055506D01*
X144761185Y-27958815D01*
X144664494Y-27879463D01*
X144554180Y-27820498D01*
X144434482Y-27784188D01*
X144310000Y-27771928D01*
X142710000Y-27771928D01*
X142585518Y-27784188D01*
X142465820Y-27820498D01*
X142355506Y-27879463D01*
X142258815Y-27958815D01*
X142179463Y-28055506D01*
X142120498Y-28165820D01*
X142084188Y-28285518D01*
X142071928Y-28410000D01*
X137089521Y-28410000D01*
X137088932Y-28408899D01*
X136909608Y-28190392D01*
X136691101Y-28011068D01*
X136441808Y-27877818D01*
X136171309Y-27795764D01*
X135960492Y-27775000D01*
X135819508Y-27775000D01*
X135608691Y-27795764D01*
X135338192Y-27877818D01*
X135088899Y-28011068D01*
X134870392Y-28190392D01*
X134691068Y-28408899D01*
X134557818Y-28658192D01*
X134475764Y-28928691D01*
X134448057Y-29210000D01*
X133921943Y-29210000D01*
X133894236Y-28928691D01*
X133812182Y-28658192D01*
X133678932Y-28408899D01*
X133499608Y-28190392D01*
X133281101Y-28011068D01*
X133031808Y-27877818D01*
X132761309Y-27795764D01*
X132550492Y-27775000D01*
X131609508Y-27775000D01*
X131398691Y-27795764D01*
X131128192Y-27877818D01*
X130878899Y-28011068D01*
X130660392Y-28190392D01*
X130481068Y-28408899D01*
X130347818Y-28658192D01*
X130265764Y-28928691D01*
X130238057Y-29210000D01*
X126295000Y-29210000D01*
X126295000Y-29082998D01*
X126129916Y-29082998D01*
X126251904Y-28860961D01*
X126234367Y-28778182D01*
X126123715Y-28518354D01*
X125964500Y-28285105D01*
X125762839Y-28087399D01*
X125526483Y-27932834D01*
X125264514Y-27827350D01*
X124987000Y-27775000D01*
X123933000Y-27775000D01*
X123655486Y-27827350D01*
X123393517Y-27932834D01*
X123157161Y-28087399D01*
X122955500Y-28285105D01*
X122796285Y-28518354D01*
X122685633Y-28778182D01*
X122668096Y-28860961D01*
X122790084Y-29082998D01*
X122625000Y-29082998D01*
X122625000Y-29337002D01*
X122790084Y-29337002D01*
X122668096Y-29559039D01*
X122685633Y-29641818D01*
X122796285Y-29901646D01*
X122955500Y-30134895D01*
X123157161Y-30332601D01*
X123386741Y-30482735D01*
X123258899Y-30551068D01*
X123040392Y-30730392D01*
X122861068Y-30948899D01*
X122727818Y-31198192D01*
X122645764Y-31468691D01*
X122618057Y-31750000D01*
X97917000Y-31750000D01*
X97917000Y-30279254D01*
X98040393Y-30429608D01*
X98258900Y-30608932D01*
X98508193Y-30742182D01*
X98778692Y-30824236D01*
X99060000Y-30851943D01*
X99341309Y-30824236D01*
X99611808Y-30742182D01*
X99861101Y-30608932D01*
X100079608Y-30429608D01*
X100258932Y-30211101D01*
X100330000Y-30078142D01*
X100401068Y-30211101D01*
X100580393Y-30429608D01*
X100798900Y-30608932D01*
X101048193Y-30742182D01*
X101318692Y-30824236D01*
X101600000Y-30851943D01*
X101881309Y-30824236D01*
X102151808Y-30742182D01*
X102401101Y-30608932D01*
X102619608Y-30429608D01*
X102798932Y-30211101D01*
X102870000Y-30078142D01*
X102941068Y-30211101D01*
X103120393Y-30429608D01*
X103338900Y-30608932D01*
X103588193Y-30742182D01*
X103858692Y-30824236D01*
X104140000Y-30851943D01*
X104421309Y-30824236D01*
X104691808Y-30742182D01*
X104941101Y-30608932D01*
X105159608Y-30429608D01*
X105338932Y-30211101D01*
X105410000Y-30078142D01*
X105481068Y-30211101D01*
X105660393Y-30429608D01*
X105878900Y-30608932D01*
X106128193Y-30742182D01*
X106398692Y-30824236D01*
X106680000Y-30851943D01*
X106961309Y-30824236D01*
X107231808Y-30742182D01*
X107481101Y-30608932D01*
X107699608Y-30429608D01*
X107878932Y-30211101D01*
X107948122Y-30081655D01*
X107955570Y-30099227D01*
X108114327Y-30332662D01*
X108315575Y-30530639D01*
X108551579Y-30685551D01*
X108813270Y-30791444D01*
X108870961Y-30801904D01*
X109093000Y-30679915D01*
X109093000Y-29337000D01*
X109073000Y-29337000D01*
X109073000Y-29083000D01*
X109093000Y-29083000D01*
X109093000Y-29063000D01*
X109347000Y-29063000D01*
X109347000Y-29083000D01*
X109367000Y-29083000D01*
X109367000Y-29337000D01*
X109347000Y-29337000D01*
X109347000Y-30679915D01*
X109569039Y-30801904D01*
X109626730Y-30791444D01*
X109888421Y-30685551D01*
X110124425Y-30530639D01*
X110325673Y-30332662D01*
X110484430Y-30099227D01*
X110491878Y-30081655D01*
X110561068Y-30211101D01*
X110740393Y-30429608D01*
X110958900Y-30608932D01*
X111208193Y-30742182D01*
X111478692Y-30824236D01*
X111760000Y-30851943D01*
X112041309Y-30824236D01*
X112311808Y-30742182D01*
X112561101Y-30608932D01*
X112779608Y-30429608D01*
X112958932Y-30211101D01*
X113092182Y-29961807D01*
X113174236Y-29691308D01*
X113195000Y-29480491D01*
X113195000Y-28939508D01*
X113174236Y-28728691D01*
X113092182Y-28458192D01*
X112958932Y-28208899D01*
X112779607Y-27990392D01*
X112561100Y-27811068D01*
X112327114Y-27686000D01*
X164679160Y-27686000D01*
X165239662Y-28246502D01*
X165129294Y-28380986D01*
X165100000Y-28435791D01*
X165070706Y-28380986D01*
X164885134Y-28154866D01*
X164659014Y-27969294D01*
X164401034Y-27831401D01*
X164121111Y-27746487D01*
X163902950Y-27725000D01*
X163757050Y-27725000D01*
X163538889Y-27746487D01*
X163258966Y-27831401D01*
X163000986Y-27969294D01*
X162774866Y-28154866D01*
X162589294Y-28380986D01*
X162451401Y-28638966D01*
X162366487Y-28918889D01*
X162337815Y-29210000D01*
X162366487Y-29501111D01*
X162451401Y-29781034D01*
X162589294Y-30039014D01*
X162774866Y-30265134D01*
X163000986Y-30450706D01*
X163258966Y-30588599D01*
X163538889Y-30673513D01*
X163757050Y-30695000D01*
X163902950Y-30695000D01*
X164121111Y-30673513D01*
X164401034Y-30588599D01*
X164659014Y-30450706D01*
X164885134Y-30265134D01*
X165070706Y-30039014D01*
X165100000Y-29984209D01*
X165129294Y-30039014D01*
X165314866Y-30265134D01*
X165540986Y-30450706D01*
X165798966Y-30588599D01*
X166078889Y-30673513D01*
X166297050Y-30695000D01*
X166442950Y-30695000D01*
X166661111Y-30673513D01*
X166941034Y-30588599D01*
X167199014Y-30450706D01*
X167425134Y-30265134D01*
X167449607Y-30235313D01*
X167470498Y-30304180D01*
X167529463Y-30414494D01*
X167608815Y-30511185D01*
X167705506Y-30590537D01*
X167815820Y-30649502D01*
X167935518Y-30685812D01*
X168060000Y-30698072D01*
X168624250Y-30695000D01*
X168783000Y-30536250D01*
X168783000Y-29337000D01*
X169037000Y-29337000D01*
X169037000Y-30536250D01*
X169195750Y-30695000D01*
X169760000Y-30698072D01*
X169884482Y-30685812D01*
X170004180Y-30649502D01*
X170114494Y-30590537D01*
X170211185Y-30511185D01*
X170290537Y-30414494D01*
X170349502Y-30304180D01*
X170385812Y-30184482D01*
X170398072Y-30060000D01*
X170395000Y-29495750D01*
X170236250Y-29337000D01*
X169037000Y-29337000D01*
X168783000Y-29337000D01*
X168763000Y-29337000D01*
X168763000Y-29083000D01*
X168783000Y-29083000D01*
X168783000Y-27883750D01*
X169037000Y-27883750D01*
X169037000Y-29083000D01*
X170236250Y-29083000D01*
X170395000Y-28924250D01*
X170398072Y-28360000D01*
X170385812Y-28235518D01*
X170349502Y-28115820D01*
X170290537Y-28005506D01*
X170211185Y-27908815D01*
X170114494Y-27829463D01*
X170004180Y-27770498D01*
X169884482Y-27734188D01*
X169760000Y-27721928D01*
X169195750Y-27725000D01*
X169037000Y-27883750D01*
X168783000Y-27883750D01*
X168624250Y-27725000D01*
X168060000Y-27721928D01*
X167935518Y-27734188D01*
X167815820Y-27770498D01*
X167705506Y-27829463D01*
X167608815Y-27908815D01*
X167529463Y-28005506D01*
X167470498Y-28115820D01*
X167449607Y-28184687D01*
X167425134Y-28154866D01*
X167386000Y-28122750D01*
X167386000Y-27989893D01*
X167390914Y-27939999D01*
X167386000Y-27890105D01*
X167386000Y-27890098D01*
X167371298Y-27740829D01*
X167313202Y-27549313D01*
X167218860Y-27372810D01*
X167091896Y-27218104D01*
X167053133Y-27186292D01*
X165951840Y-26085000D01*
X172035000Y-26085000D01*
X172035001Y-57735000D01*
G36*
X124587000Y-29083000D02*
G01*
X124607000Y-29083000D01*
X124607000Y-29337000D01*
X124587000Y-29337000D01*
X124587000Y-29357000D01*
X124333000Y-29357000D01*
X124333000Y-29337000D01*
X124313000Y-29337000D01*
X124313000Y-29083000D01*
X124333000Y-29083000D01*
X124333000Y-29063000D01*
X124587000Y-29063000D01*
X124587000Y-29083000D01*
X124587000Y-29083000D01*
G37*
X124587000Y-29083000D02*
X124607000Y-29083000D01*
X124607000Y-29337000D01*
X124587000Y-29337000D01*
X124587000Y-29357000D01*
X124333000Y-29357000D01*
X124333000Y-29337000D01*
X124313000Y-29337000D01*
X124313000Y-29083000D01*
X124333000Y-29083000D01*
X124333000Y-29063000D01*
X124587000Y-29063000D01*
X124587000Y-29083000D01*
G04 #@! TD*
M02*
